<svg width="27" height="27" viewBox="0 0 27 27" fill="none" xmlns="http://www.w3.org/2000/svg">
<path d="M25.75 10.6184L19.5 12.5921L11.1667 8.64474L9.08333 15.8816L16.375 19.8289L17.4167 25.75M25.75 8.64474V25.75M9.08333 19.8289L4.91667 25.75M5.95833 8.64474C2.83333 9.96053 0.75 13.25 0.75 13.25L4.91667 14.5658M13.25 6.01316C14.3551 6.01316 15.4149 5.7359 16.1963 5.24239C16.9777 4.74887 17.4167 4.07952 17.4167 3.38158C17.4167 2.68364 16.9777 2.01429 16.1963 1.52077C15.4149 1.02725 14.3551 0.75 13.25 0.75C12.1449 0.75 11.0851 1.02725 10.3037 1.52077C9.52232 2.01429 9.08333 2.68364 9.08333 3.38158C9.08333 4.07952 9.52232 4.74887 10.3037 5.24239C11.0851 5.7359 12.1449 6.01316 13.25 6.01316Z" stroke="#888888" stroke-width="1.5" stroke-linecap="round" stroke-linejoin="round"/>
</svg>
