<svg width="16" height="23" viewBox="0 0 16 23" fill="none" xmlns="http://www.w3.org/2000/svg">
<path d="M8.00162 5C4.80646 5 2.20703 7.59944 2.20703 10.7946C2.20703 14.7598 7.39262 20.581 7.6134 20.8269C7.82078 21.0579 8.18284 21.0575 8.38984 20.8269C8.61062 20.581 13.7963 14.7598 13.7963 10.7946C13.7962 7.59944 11.1968 5 8.00162 5ZM8.00162 13.71C6.39406 13.71 5.08624 12.4021 5.08624 10.7946C5.08624 9.187 6.39409 7.87919 8.00162 7.87919C9.60915 7.87919 10.917 9.18703 10.917 10.7946C10.917 12.4022 9.60915 13.71 8.00162 13.71Z" fill="#174B8B"/>
</svg>
