<svg width="27" height="27" viewBox="0 0 27 27" fill="none" xmlns="http://www.w3.org/2000/svg">
<path d="M0.75 13.25C0.75 7.3575 0.75 4.41125 2.58 2.58C4.4125 0.75 7.3575 0.75 13.25 0.75C19.1425 0.75 22.0888 0.75 23.9188 2.58C25.75 4.4125 25.75 7.3575 25.75 13.25C25.75 19.1425 25.75 22.0888 23.9188 23.9188C22.09 25.75 19.1425 25.75 13.25 25.75C7.3575 25.75 4.41125 25.75 2.58 23.9188C0.75 22.09 0.75 19.1425 0.75 13.25Z" stroke="#888888" stroke-width="1.5"/>
<path d="M7 15.75L9.86625 12.8837C10.1007 12.6494 10.4185 12.5178 10.75 12.5178C11.0815 12.5178 11.3993 12.6494 11.6337 12.8837L13.6163 14.8663C13.8507 15.1006 14.1685 15.2322 14.5 15.2322C14.8315 15.2322 15.1493 15.1006 15.3837 14.8663L19.5 10.75M19.5 10.75V13.875M19.5 10.75H16.375" stroke="#888888" stroke-width="1.5" stroke-linecap="round" stroke-linejoin="round"/>
</svg>
