<svg width="14" height="17" viewBox="0 0 14 17" fill="none" xmlns="http://www.w3.org/2000/svg">
<path d="M4.1788 3.24975H9.3212M4.1788 3.24975C4.1788 1.86975 5.33 0.75 6.75 0.75C8.17 0.75 9.3212 1.869 9.3212 3.24975M4.1788 3.24975C2.2852 3.24975 0.75 4.74225 0.75 6.5835V14.583C0.75 15.228 1.518 15.75 2.4644 15.75H11.0356C11.9828 15.75 12.75 15.228 12.75 14.583V6.5835C12.75 4.74225 11.2148 3.24975 9.3212 3.24975M5.4644 8.25H8.0356C8.746 8.25 9.3212 7.6905 9.3212 6.99975C9.3212 6.30975 8.7452 5.75025 8.0356 5.75025H5.4644C4.754 5.75025 4.1788 6.30975 4.1788 6.99975C4.1788 7.68975 4.7548 8.25 5.4644 8.25ZM9.3212 15.75V12.417C9.3212 11.496 8.5532 10.7498 7.6068 10.7498H5.894C4.9468 10.7498 4.1796 11.496 4.1796 12.417V15.75H9.3212Z" stroke="white" stroke-width="1.5" stroke-linecap="round" stroke-linejoin="round"/>
</svg>
