<svg width="27" height="27" viewBox="0 0 27 27" fill="none" xmlns="http://www.w3.org/2000/svg">
<path d="M8.25 25.75H18.25H8.25ZM4.5 22H22H4.5ZM0.75 18.25H25.75H0.75Z" fill="#F7931D"/>
<path d="M8.25 25.75H18.25M4.5 22H22M0.75 18.25H25.75" stroke="#888888" stroke-width="1.5" stroke-linecap="round" stroke-linejoin="round"/>
<path d="M13.6875 13.2196V17.7499H12.8125V13.2196L13.25 12.7821L13.6875 13.2196ZM11.8125 12.8055L11.4121 13.205L10.7939 12.5878L11.8125 11.5702V12.8055ZM15.7051 12.5878L15.0869 13.205L14.6875 12.8055V11.5702L15.7051 12.5878Z" fill="#F7931D" stroke="#888888"/>
<path d="M13.25 0.75V2V0.75ZM25.75 13.25H24.5H25.75ZM2 13.25H0.75H2ZM22.0875 4.4125L21.5975 4.90375L22.0875 4.4125ZM4.9025 4.9025L4.41125 4.41125L4.9025 4.9025ZM10.75 6.17625C12.3162 5.62191 14.0221 5.6033 15.6001 6.12335C17.178 6.64341 18.5386 7.67268 19.4683 9.04962C20.398 10.4266 20.8441 12.0732 20.7368 13.7312C20.6294 15.3891 19.9745 16.9645 18.875 18.21H7.625C6.41488 16.8413 5.74788 15.0769 5.75 13.25C5.75 12.3737 5.9 11.5325 6.17625 10.75" fill="#F7931D"/>
<path d="M13.25 0.75V2M25.75 13.25H24.5M2 13.25H0.75M22.0875 4.4125L21.5975 4.90375M4.9025 4.9025L4.41125 4.41125M10.75 6.17625C12.3162 5.62191 14.0221 5.6033 15.6001 6.12335C17.178 6.64341 18.5386 7.67268 19.4683 9.04962C20.398 10.4266 20.8441 12.0732 20.7368 13.7312C20.6294 15.3891 19.9745 16.9645 18.875 18.21H7.625C6.41488 16.8413 5.74788 15.0769 5.75 13.25C5.75 12.3738 5.9 11.5325 6.17625 10.75" stroke="#888888" stroke-width="1.5" stroke-linecap="round"/>
</svg>
