<svg width="16" height="20" viewBox="0 0 16 20" fill="none" xmlns="http://www.w3.org/2000/svg">
<path d="M15.28 5.75L9.75 0.22C9.60948 0.0793075 9.41885 0.000175052 9.22 0H6.75C6.02065 0 5.32118 0.289731 4.80546 0.805456C4.28973 1.32118 4 2.02065 4 2.75V4H2.75C2.02065 4 1.32118 4.28973 0.805456 4.80546C0.289731 5.32118 0 6.02065 0 6.75V16.75C0 17.4793 0.289731 18.1788 0.805456 18.6945C1.32118 19.2103 2.02065 19.5 2.75 19.5H9.75C10.4793 19.5 11.1788 19.2103 11.6945 18.6945C12.2103 18.1788 12.5 17.4793 12.5 16.75V15.5H12.75C13.4793 15.5 14.1788 15.2103 14.6945 14.6945C15.2103 14.1788 15.5 13.4793 15.5 12.75V6.25C15.4921 6.0616 15.4136 5.88309 15.28 5.75ZM10 2.56L12.94 5.5H10V2.56ZM11 16.75C11 17.0815 10.8683 17.3995 10.6339 17.6339C10.3995 17.8683 10.0815 18 9.75 18H2.75C2.41848 18 2.10054 17.8683 1.86612 17.6339C1.6317 17.3995 1.5 17.0815 1.5 16.75V6.75C1.5 6.41848 1.6317 6.10054 1.86612 5.86612C2.10054 5.6317 2.41848 5.5 2.75 5.5H4V12.75C4 13.4793 4.28973 14.1788 4.80546 14.6945C5.32118 15.2103 6.02065 15.5 6.75 15.5H11V16.75ZM12.75 14H6.75C6.41848 14 6.10054 13.8683 5.86612 13.6339C5.6317 13.3995 5.5 13.0815 5.5 12.75V2.75C5.5 2.41848 5.6317 2.10054 5.86612 1.86612C6.10054 1.6317 6.41848 1.5 6.75 1.5H8.5V6.25C8.50259 6.44811 8.58244 6.63737 8.72253 6.77747C8.86263 6.91756 9.05189 6.99741 9.25 7H14V12.75C14 13.0815 13.8683 13.3995 13.6339 13.6339C13.3995 13.8683 13.0815 14 12.75 14Z" fill="#174B8B"/>
</svg>
