<svg width="35" height="35" viewBox="0 0 35 35" fill="none" xmlns="http://www.w3.org/2000/svg">
<rect width="35" height="35" rx="5" fill="#F7931D"/>
<path d="M17 15C16.337 15 15.7011 14.7366 15.2322 14.2678C14.7634 13.7989 14.5 13.163 14.5 12.5C14.5 11.837 14.7634 11.2011 15.2322 10.7322C15.7011 10.2634 16.337 10 17 10C17.663 10 18.2989 10.2634 18.7678 10.7322C19.2366 11.2011 19.5 11.837 19.5 12.5C19.5 12.8283 19.4353 13.1534 19.3097 13.4567C19.1841 13.76 18.9999 14.0356 18.7678 14.2678C18.5356 14.4999 18.26 14.6841 17.9567 14.8097C17.6534 14.9353 17.3283 15 17 15ZM17 5.5C15.1435 5.5 13.363 6.2375 12.0503 7.55025C10.7375 8.86301 10 10.6435 10 12.5C10 17.75 17 25.5 17 25.5C17 25.5 24 17.75 24 12.5C24 10.6435 23.2625 8.86301 21.9497 7.55025C20.637 6.2375 18.8565 5.5 17 5.5Z" fill="white"/>
</svg>
