<svg width="16" height="14" viewBox="0 0 16 14" fill="none" xmlns="http://www.w3.org/2000/svg">
<path fill-rule="evenodd" clip-rule="evenodd" d="M0 0H1V13.125H16V14H0V0ZM10 3.0625C10 2.94647 10.0527 2.83519 10.1464 2.75314C10.2402 2.67109 10.3674 2.625 10.5 2.625H14.5C14.6326 2.625 14.7598 2.67109 14.8536 2.75314C14.9473 2.83519 15 2.94647 15 3.0625V6.5625C15 6.67853 14.9473 6.78981 14.8536 6.87186C14.7598 6.95391 14.6326 7 14.5 7C14.3674 7 14.2402 6.95391 14.1464 6.87186C14.0527 6.78981 14 6.67853 14 6.5625V4.2875L10.387 8.15238C10.3428 8.19961 10.2877 8.23822 10.2254 8.26573C10.1631 8.29323 10.0949 8.30901 10.0252 8.31206C9.9555 8.31511 9.88584 8.30536 9.8207 8.28343C9.75556 8.26151 9.69639 8.22789 9.647 8.18475L7.06 5.92113L3.404 10.3197C3.32402 10.4087 3.20774 10.4671 3.07958 10.4827C2.95143 10.4982 2.82138 10.4697 2.71677 10.403C2.61216 10.3364 2.54113 10.2369 2.51861 10.1255C2.49609 10.014 2.52383 9.89921 2.596 9.80525L6.596 4.99275C6.63846 4.94158 6.69309 4.89906 6.75613 4.86814C6.81917 4.83722 6.88912 4.81862 6.96117 4.81363C7.03322 4.80864 7.10564 4.81738 7.17346 4.83923C7.24128 4.86109 7.30287 4.89556 7.354 4.94025L9.963 7.224L13.445 3.5H10.5C10.3674 3.5 10.2402 3.45391 10.1464 3.37186C10.0527 3.28981 10 3.17853 10 3.0625Z" fill="#242424"/>
</svg>
