<svg width="17" height="14" viewBox="0 0 17 14" fill="none" xmlns="http://www.w3.org/2000/svg">
<path d="M8.25 9.4165C9.49264 9.4165 10.5 8.52107 10.5 7.4165C10.5 6.31193 9.49264 5.4165 8.25 5.4165C7.00736 5.4165 6 6.31193 6 7.4165C6 8.52107 7.00736 9.4165 8.25 9.4165Z" stroke="white" stroke-width="1.5"/>
<path d="M0.75 7.65936C0.75 5.61603 0.75 4.5947 1.31175 3.86136C1.55593 3.54269 1.86838 3.26994 2.23125 3.0587C2.77125 2.74336 3.44775 2.6307 4.4835 2.5907C4.97775 2.5907 5.403 2.26403 5.49975 1.8407C5.57369 1.53061 5.7658 1.25272 6.04361 1.054C6.32143 0.855275 6.66791 0.747903 7.0245 0.750031H9.4755C10.2165 0.750031 10.8547 1.2067 11.0002 1.8407C11.097 2.26403 11.5222 2.5907 12.0165 2.5907C13.0515 2.6307 13.728 2.74403 14.2687 3.0587C14.6325 3.2707 14.9452 3.54336 15.1882 3.86136C15.75 4.5947 15.75 5.61603 15.75 7.65936C15.75 9.7027 15.75 10.7234 15.1882 11.4574C14.9441 11.776 14.6316 12.0488 14.2687 12.26C13.428 12.75 12.2573 12.75 9.9165 12.75H6.5835C4.24275 12.75 3.072 12.75 2.23125 12.26C1.86858 12.0485 1.55638 11.7755 1.3125 11.4567C1.14955 11.241 1.02956 11.0019 0.95775 10.75M13.5 5.4167H12.75" stroke="white" stroke-width="1.5" stroke-linecap="round"/>
</svg>
