<svg width="25" height="25" viewBox="0 0 25 25" fill="none" xmlns="http://www.w3.org/2000/svg">
<rect width="25" height="25" rx="9" fill="#F75351"/>
<path d="M7.71081 10.5613L10.9846 12.5511C11.2943 12.7394 11.6792 12.8421 12.0759 12.8421C12.4726 12.8421 12.8575 12.7394 13.1672 12.5511L16.441 10.5613M19.933 15.8674V9.23473C19.933 8.88292 19.7491 8.54551 19.4216 8.29673C19.0942 8.04796 18.6501 7.9082 18.187 7.9082H5.96478C5.50171 7.9082 5.0576 8.04796 4.73015 8.29673C4.40271 8.54551 4.21875 8.88292 4.21875 9.23473V15.8674C4.21875 16.2192 4.40271 16.5566 4.73015 16.8054C5.0576 17.0542 5.50171 17.1939 5.96478 17.1939H18.187C18.6501 17.1939 19.0942 17.0542 19.4216 16.8054C19.7491 16.5566 19.933 16.2192 19.933 15.8674Z" stroke="white" stroke-width="2" stroke-linecap="round" stroke-linejoin="round"/>
</svg>
