<svg width="25" height="25" viewBox="0 0 25 25" fill="none" xmlns="http://www.w3.org/2000/svg">
<rect width="25" height="25" rx="9" fill="#60C571"/>
<path d="M4.58012 12.0865C4.57972 13.4774 4.95584 14.8355 5.67104 16.0326L4.51172 20.1226L8.84353 19.0252C10.0417 19.6554 11.3841 19.9856 12.7482 19.9857H12.7518C17.2551 19.9857 20.921 16.4449 20.9229 12.0927C20.9238 9.98377 20.0746 8.00067 18.5317 6.50869C16.9891 5.01684 14.9374 4.19481 12.7515 4.19385C8.2476 4.19385 4.58204 7.73451 4.58018 12.0865" fill="url(#paint0_linear_578_5132)"/>
<path d="M4.2898 12.0839C4.28934 13.5249 4.67895 14.9316 5.41964 16.1715L4.21875 20.4082L8.70589 19.2714C9.94224 19.9227 11.3342 20.2661 12.7507 20.2667H12.7543C17.4192 20.2667 21.2168 16.5984 21.2188 12.0905C21.2195 9.90576 20.3398 7.85137 18.7418 6.30594C17.1436 4.76071 15.0186 3.9091 12.7543 3.9082C8.08864 3.9082 4.29166 7.57591 4.2898 12.0839ZM6.96206 15.958L6.79452 15.701C6.09021 14.6189 5.71847 13.3685 5.719 12.0844C5.72046 8.33749 8.87635 5.28905 12.757 5.28905C14.6363 5.28982 16.4024 5.99769 17.7308 7.28203C19.0592 8.5665 19.7901 10.2739 19.7896 12.09C19.7879 15.8369 16.6319 18.8857 12.7543 18.8857H12.7516C11.489 18.8851 10.2507 18.5575 9.1708 17.9383L8.91381 17.7911L6.25105 18.4657L6.96206 15.958Z" fill="url(#paint1_linear_578_5132)"/>
<path d="M10.6386 8.66596C10.4801 8.32569 10.3134 8.31883 10.1627 8.31286C10.0393 8.30773 9.89826 8.30811 9.75734 8.30811C9.6163 8.30811 9.38713 8.35938 9.19342 8.56375C8.99952 8.76831 8.45312 9.26264 8.45312 10.2681C8.45312 11.2735 9.21102 12.2452 9.31667 12.3817C9.42246 12.5179 10.7798 14.6472 12.9295 15.4663C14.7161 16.147 15.0797 16.0116 15.4674 15.9775C15.8552 15.9435 16.7188 15.4833 16.895 15.0061C17.0713 14.529 17.0713 14.12 17.0184 14.0345C16.9655 13.9494 16.8245 13.8982 16.613 13.7961C16.4015 13.6939 15.3616 13.1995 15.1678 13.1313C14.9739 13.0631 14.8329 13.0291 14.6919 13.2337C14.5508 13.438 14.1458 13.8982 14.0224 14.0345C13.899 14.1711 13.7756 14.1881 13.5641 14.0859C13.3525 13.9834 12.6714 13.7678 11.8633 13.0717C11.2346 12.53 10.8101 11.8611 10.6867 11.6565C10.5633 11.4522 10.6735 11.3414 10.7795 11.2396C10.8746 11.148 10.9911 11.001 11.097 10.8817C11.2024 10.7623 11.2376 10.6772 11.3081 10.5409C11.3787 10.4045 11.3434 10.2851 11.2906 10.1829C11.2376 10.0807 10.8266 9.07001 10.6386 8.66596Z" fill="white"/>
<defs>
<linearGradient id="paint0_linear_578_5132" x1="825.071" y1="1597.07" x2="825.071" y2="4.19385" gradientUnits="userSpaceOnUse">
<stop stop-color="#1FAF38"/>
<stop offset="1" stop-color="#60D669"/>
</linearGradient>
<linearGradient id="paint1_linear_578_5132" x1="854.219" y1="1653.91" x2="854.219" y2="3.9082" gradientUnits="userSpaceOnUse">
<stop stop-color="#F9F9F9"/>
<stop offset="1" stop-color="white"/>
</linearGradient>
</defs>
</svg>
