<svg width="25" height="25" viewBox="0 0 25 25" fill="none" xmlns="http://www.w3.org/2000/svg">
<rect width="25" height="25" rx="9" fill="#3B6DAA"/>
<path d="M8.38438 4.37271L9.37592 4.09324C9.9191 3.93975 10.5033 3.9767 11.0196 4.19719C11.5358 4.41768 11.9488 4.80666 12.1815 5.29153L12.9479 6.88872C13.1479 7.30578 13.2037 7.77106 13.1072 8.2193C13.0107 8.66753 12.767 9.07622 12.41 9.38802L11.1398 10.4971C11.1027 10.5295 11.0792 10.5733 11.0735 10.6205C11.0362 10.9366 11.2647 11.5521 11.7923 12.408C12.1747 13.0299 12.5222 13.467 12.817 13.7114C13.0235 13.8826 13.1365 13.9192 13.1849 13.9065L14.8927 13.4168C15.3591 13.2831 15.8585 13.2896 16.3207 13.4352C16.783 13.5809 17.1851 13.8584 17.4706 14.229L18.5582 15.643C18.8892 16.073 19.0426 16.6009 18.9898 17.1287C18.937 17.6566 18.6816 18.1486 18.271 18.5134L17.5173 19.1822C17.1178 19.5367 16.6271 19.7883 16.093 19.9123C15.5589 20.0364 14.9996 20.0287 14.4696 19.89C12.1297 19.2777 10.0319 17.4273 8.15242 14.3771C6.27128 11.3228 5.61025 8.69213 6.2203 6.48425C6.35725 5.98768 6.62838 5.53254 7.00757 5.1627C7.38676 4.79286 7.86037 4.52079 8.38438 4.37271ZM8.75313 5.51686C8.43866 5.60548 8.15385 5.76852 7.92616 5.99026C7.69847 6.21199 7.53557 6.48495 7.45315 6.78283C6.94166 8.63958 7.52707 10.9717 9.25697 13.7799C10.9852 16.5841 12.8451 18.2251 14.8137 18.7403C15.1317 18.8234 15.4673 18.8279 15.7877 18.7534C16.1081 18.6789 16.4025 18.5279 16.6422 18.3151L17.395 17.6463C17.5817 17.4805 17.6979 17.2568 17.722 17.0168C17.7461 16.7768 17.6764 16.5368 17.5258 16.3413L16.4383 14.928C16.3085 14.7594 16.1256 14.6331 15.9153 14.5668C15.705 14.5006 15.4779 14.4977 15.2657 14.5586L13.5537 15.0499C12.5596 15.3269 11.6581 14.5777 10.6895 13.0052C10.0353 11.9462 9.73108 11.1261 9.80755 10.4884C9.84663 10.1572 10.0115 9.85141 10.2706 9.6237L11.5408 8.51458C11.703 8.37277 11.8137 8.18695 11.8575 7.98318C11.9012 7.77941 11.8757 7.56792 11.7847 7.37839L11.0192 5.7812C10.9134 5.5608 10.7256 5.384 10.491 5.28379C10.2563 5.18357 9.99072 5.1668 9.74382 5.23659L8.75313 5.51686Z" fill="white"/>
</svg>
