<svg width="24" height="21" viewBox="0 0 24 21" fill="none" xmlns="http://www.w3.org/2000/svg">
<rect x="0.5" y="0.5" width="22.8394" height="19.9905" rx="9.99523" fill="#F2F4F6"/>
<rect x="0.5" y="0.5" width="22.8394" height="19.9905" rx="9.99523" stroke="#E4E6E8"/>
<path d="M18.0312 13.1091C18.0312 15.3841 16.675 16.7404 14.4 16.7404H13.6563C13.3125 16.7404 13.0312 16.4591 13.0312 16.1153V12.5091C13.0312 12.3404 13.1688 12.1966 13.3375 12.1966L14.4375 12.1778C14.525 12.1716 14.6 12.1091 14.6187 12.0216L14.8375 10.8278C14.8563 10.7153 14.7687 10.6091 14.65 10.6091L13.3188 10.6279C13.1437 10.6279 13.0062 10.4904 13 10.3216L12.975 8.79036C12.975 8.69036 13.0563 8.60286 13.1625 8.60286L14.6625 8.57786C14.7687 8.57786 14.85 8.49662 14.85 8.39037L14.825 6.89035C14.825 6.7841 14.7438 6.70286 14.6375 6.70286L12.95 6.72786C11.9125 6.74661 11.0875 7.5966 11.1063 8.63411L11.1375 10.3529C11.1437 10.5278 11.0063 10.6654 10.8313 10.6716L10.0812 10.6841C9.975 10.6841 9.89375 10.7654 9.89375 10.8716L9.9125 12.0591C9.9125 12.1654 9.99375 12.2466 10.1 12.2466L10.85 12.2341C11.025 12.2341 11.1625 12.3716 11.1687 12.5404L11.225 16.1029C11.2312 16.4528 10.95 16.7404 10.6 16.7404H9.1625C6.8875 16.7404 5.53125 15.3841 5.53125 13.1029V7.87161C5.53125 5.59661 6.8875 4.24035 9.1625 4.24035H14.4C16.675 4.24035 18.0312 5.59661 18.0312 7.87161V13.1091Z" fill="#174B8B"/>
</svg>
