<svg width="40" height="35" viewBox="0 0 40 35" fill="none" xmlns="http://www.w3.org/2000/svg">
<g filter="url(#filter0_d_578_4090)">
<path fill-rule="evenodd" clip-rule="evenodd" d="M19.8754 2.32001C21.6051 0.832045 23.8751 0.00370324 26.2331 0C28.7821 0 31.2159 0.973525 32.9969 2.68748C34.7692 4.4028 35.7565 6.68915 35.7512 9.06612C35.7565 11.4431 34.7692 13.7294 32.9969 15.4448C31.8214 16.576 30.6473 17.7346 29.4673 18.8974C27.069 21.2612 24.6455 23.6512 22.1276 25.9012L22.1231 25.9067C21.4979 26.4564 20.6643 26.7548 19.8035 26.7371C18.9427 26.7194 18.1242 26.387 17.5258 25.8121L6.75242 15.4448C3.08253 11.9113 3.08253 6.22096 6.75242 2.68885C8.4487 1.03853 10.7766 0.0745914 13.2324 0.00556532C15.6883 -0.0634608 18.0747 0.767974 19.8754 2.32001Z" fill="#E6E2E2"/>
<path d="M26.2334 0.5C28.5047 0.500068 30.6757 1.31361 32.3271 2.75195L32.6504 3.04785C34.3285 4.67258 35.2559 6.83043 35.251 9.06543V9.06738C35.2559 11.3025 34.3286 13.4602 32.6504 15.085C31.4723 16.2186 30.2955 17.379 29.1162 18.541C26.7163 20.9065 24.3012 23.2878 21.7939 25.5283L21.7734 25.5459C21.2476 25.9998 20.5454 26.2524 19.8135 26.2373C19.0731 26.222 18.3761 25.9354 17.8721 25.4512H17.8711L7.09961 15.085C3.63395 11.7481 3.63412 6.38421 7.09961 3.04883L7.10156 3.04688C8.70416 1.48792 10.9106 0.570617 13.2461 0.504883C15.5819 0.43923 17.846 1.23153 19.5488 2.69922L19.875 2.97949L20.2012 2.69922C21.837 1.29202 23.9906 0.503639 26.2334 0.5Z" stroke="white"/>
</g>
<defs>
<filter id="filter0_d_578_4090" x="0" y="0" width="39.75" height="34.7378" filterUnits="userSpaceOnUse" color-interpolation-filters="sRGB">
<feFlood flood-opacity="0" result="BackgroundImageFix"/>
<feColorMatrix in="SourceAlpha" type="matrix" values="0 0 0 0 0 0 0 0 0 0 0 0 0 0 0 0 0 0 127 0" result="hardAlpha"/>
<feOffset dy="4"/>
<feGaussianBlur stdDeviation="2"/>
<feComposite in2="hardAlpha" operator="out"/>
<feColorMatrix type="matrix" values="0 0 0 0 0 0 0 0 0 0 0 0 0 0 0 0 0 0 0.25 0"/>
<feBlend mode="normal" in2="BackgroundImageFix" result="effect1_dropShadow_578_4090"/>
<feBlend mode="normal" in="SourceGraphic" in2="effect1_dropShadow_578_4090" result="shape"/>
</filter>
</defs>
</svg>
