<svg width="16" height="20" viewBox="0 0 16 20" fill="none" xmlns="http://www.w3.org/2000/svg">
<path d="M9.01562 9.5C9.01562 8.61977 9.14061 7.24694 9.57715 6.09473C10.0139 4.94205 10.76 4.01562 12 4.01562C13.2408 4.01562 14.2371 5.00832 14.9238 6.38184C15.6101 7.75448 15.9844 9.50221 15.9844 11C15.9844 11.9933 15.7343 13.2422 15.4844 14.2432C15.3595 14.7432 15.2353 15.1812 15.1416 15.4941C15.0948 15.6507 15.0556 15.7762 15.0283 15.8623C15.0147 15.9053 15.0034 15.9385 14.9961 15.9609C14.9928 15.9709 14.9901 15.9787 14.9883 15.9844H11.0146C11.0112 14.4896 10.5122 13.6146 10.0137 12.7422C9.51391 11.8676 9.01562 10.9957 9.01562 9.5ZM11.0156 18V17.0156H14.9844V18C14.9844 19.0945 14.0945 19.9844 13 19.9844C11.9055 19.9844 11.0156 19.0945 11.0156 18ZM0.015625 7C0.015625 5.50221 0.389851 3.75448 1.07617 2.38184C1.76293 1.00832 2.75923 0.015625 4 0.015625C5.24004 0.015625 5.98612 0.942055 6.42285 2.09473C6.85939 3.24694 6.98438 4.61977 6.98438 5.5C6.98438 6.99568 6.48609 7.8676 5.98633 8.74219C5.48783 9.61457 4.98784 10.4896 4.98438 11.9844H1.01074C1.0089 11.9788 1.0071 11.9708 1.00391 11.9609C0.996601 11.9385 0.985319 11.9053 0.97168 11.8623C0.944359 11.7762 0.905246 11.6507 0.858398 11.4941C0.764739 11.1812 0.640489 10.7432 0.515625 10.2432C0.265678 9.2422 0.015625 7.99329 0.015625 7ZM1.01562 14V13.0156H4.98438V14C4.98438 15.0945 4.0945 15.9844 3 15.9844C1.9055 15.9844 1.01562 15.0945 1.01562 14Z" fill="white" stroke="white" stroke-width="0.03125"/>
</svg>
