<svg width="27" height="24" viewBox="0 0 27 24" fill="none" xmlns="http://www.w3.org/2000/svg">
<path d="M0.75 22.75V21.4559C0.75 19.0534 1.58807 16.7492 3.07983 15.0504C4.5716 13.3515 6.59487 12.3971 8.70455 12.3971C10.8142 12.3971 12.8375 13.3515 14.3293 15.0504C15.821 16.7492 16.6591 19.0534 16.6591 21.4559V22.75" stroke="#888888" stroke-width="1.5" stroke-linecap="round"/>
<path d="M14.3867 14.9853C14.3867 13.2692 14.9853 11.6234 16.0509 10.4099C17.1164 9.19643 18.5616 8.51471 20.0685 8.51471C20.8147 8.51471 21.5535 8.68208 22.2429 9.00725C22.9322 9.33243 23.5586 9.80905 24.0862 10.4099C24.6138 11.0108 25.0323 11.7241 25.3179 12.5091C25.6034 13.2942 25.7504 14.1356 25.7504 14.9853V15.6324" stroke="#888888" stroke-width="1.5" stroke-linecap="round"/>
<path d="M8.70561 12.3971C9.91114 12.3971 11.0673 11.8517 11.9197 10.8809C12.7722 9.91013 13.2511 8.59347 13.2511 7.22059C13.2511 5.8477 12.7722 4.53105 11.9197 3.56027C11.0673 2.58949 9.91114 2.04412 8.70561 2.04412C7.50008 2.04412 6.34393 2.58949 5.49149 3.56027C4.63905 4.53105 4.16016 5.8477 4.16016 7.22059C4.16016 8.59347 4.63905 9.91013 5.49149 10.8809C6.34393 11.8517 7.50008 12.3971 8.70561 12.3971ZM20.0692 8.51471C20.9734 8.51471 21.8405 8.10567 22.4798 7.37759C23.1192 6.64951 23.4783 5.66202 23.4783 4.63235C23.4783 3.60269 23.1192 2.6152 22.4798 1.88711C21.8405 1.15903 20.9734 0.75 20.0692 0.75C19.1651 0.75 18.298 1.15903 17.6587 1.88711C17.0193 2.6152 16.6602 3.60269 16.6602 4.63235C16.6602 5.66202 17.0193 6.64951 17.6587 7.37759C18.298 8.10567 19.1651 8.51471 20.0692 8.51471Z" stroke="#888888" stroke-width="1.5" stroke-linecap="round" stroke-linejoin="round"/>
</svg>
