<svg width="15" height="22" viewBox="0 0 15 22" fill="none" xmlns="http://www.w3.org/2000/svg">
<path d="M7.5 1V21M13 2.81818H5.5C4.30653 2.81818 3.16193 3.24919 2.31802 4.01638C1.47411 4.78358 1 5.82411 1 6.90909C1 7.99407 1.47411 9.03461 2.31802 9.8018C3.16193 10.569 4.30653 11 5.5 11H9.5C10.0909 11 10.6761 11.1058 11.2221 11.3114C11.768 11.517 12.2641 11.8183 12.682 12.1982C13.0998 12.5781 13.4313 13.0291 13.6575 13.5254C13.8836 14.0217 14 14.5537 14 15.0909C14 15.6281 13.8836 16.1601 13.6575 16.6564C13.4313 17.1528 13.0998 17.6037 12.682 17.9836C12.2641 18.3635 11.768 18.6648 11.2221 18.8704C10.6761 19.076 10.0909 19.1818 9.5 19.1818H2" stroke="#EE3331" stroke-width="2" stroke-linecap="round" stroke-linejoin="round"/>
</svg>
