<svg width="12" height="12" viewBox="0 0 12 12" fill="none" xmlns="http://www.w3.org/2000/svg">
<path d="M8.40234 0.5C9.20967 0.5 9.99636 0.864774 10.582 1.5332V1.53418C11.1686 2.20835 11.5018 3.11652 11.5 4.06836V4.07031C11.5017 5.02146 11.1689 5.9286 10.583 6.60254C10.1364 7.11286 9.69046 7.63513 9.24512 8.15625C8.33727 9.21882 7.42906 10.2819 6.4873 11.2812L6.47949 11.2891C6.33647 11.434 6.15896 11.5041 5.98535 11.5C5.80811 11.4957 5.6279 11.4141 5.48828 11.2549L1.41699 6.60254C0.194821 5.20516 0.19497 2.9328 1.41699 1.53613L1.41797 1.53418C1.97349 0.892374 2.72532 0.528035 3.50586 0.501953C4.28616 0.475909 5.05477 0.788995 5.64258 1.39062L6 1.75586L6.35742 1.39062C6.92203 0.813998 7.65299 0.501766 8.40234 0.5Z" stroke="white"/>
</svg>
