<svg width="19" height="16" viewBox="0 0 19 16" fill="none" xmlns="http://www.w3.org/2000/svg">
<path fill-rule="evenodd" clip-rule="evenodd" d="M9.49988 1.3883C10.5349 0.497898 11.8933 0.00221603 13.3043 0C14.8297 0 16.2861 0.58256 17.3518 1.60819C18.4124 2.63464 19.0031 4.0028 19 5.42519C19.0031 6.84757 18.4124 8.21573 17.3518 9.24218C16.6484 9.9191 15.9458 10.6124 15.2397 11.3082C13.8045 12.7228 12.3543 14.1529 10.8476 15.4994L10.8449 15.5026C10.4708 15.8316 9.97198 16.0102 9.45686 15.9996C8.94173 15.989 8.45192 15.79 8.09387 15.446L1.64705 9.24218C-0.549018 7.12774 -0.549018 3.72264 1.64705 1.60901C2.66211 0.621458 4.05511 0.0446357 5.52471 0.0033303C6.99431 -0.0379751 8.42234 0.459557 9.49988 1.3883Z" fill="#EE3331"/>
</svg>
