<svg width="25" height="25" viewBox="0 0 25 25" fill="none" xmlns="http://www.w3.org/2000/svg">
<path d="M20.7983 11.0281C20.6043 11.0281 20.4425 10.9462 20.3129 10.7825C20.1833 10.6188 20.1185 10.4164 20.1185 10.1753V2.68454L17.7108 5.66244C17.5839 5.82162 17.4308 5.8978 17.2513 5.89098C17.071 5.88302 16.9133 5.79547 16.7782 5.62833C16.654 5.4771 16.592 5.28381 16.592 5.04844C16.592 4.81307 16.6554 4.61523 16.7823 4.45491L20.0301 0.41445C20.2495 0.13815 20.5055 0 20.7983 0C21.091 0 21.3475 0.13815 21.5677 0.41445L24.8142 4.45661C24.9466 4.62148 25.0082 4.81648 24.9991 5.04162C24.9901 5.26675 24.9194 5.468 24.787 5.64538C24.6547 5.82276 24.4979 5.91145 24.3167 5.91145C24.1354 5.91145 23.9781 5.82844 23.8449 5.66244L21.4794 2.69477V10.1753C21.4794 10.4175 21.4141 10.6199 21.2836 10.7825C21.1531 10.9451 20.9913 11.027 20.7983 11.0281ZM1.12626 25C0.654966 25 0.320981 24.7476 0.124306 24.2427C-0.0723687 23.7379 -0.035662 23.2558 0.234426 22.7964L3.73786 16.8952C3.84753 16.7121 3.98031 16.5746 4.1362 16.4825C4.29209 16.3904 4.45206 16.3449 4.6161 16.346C4.78015 16.3472 4.94057 16.3926 5.09737 16.4825C5.25416 16.5723 5.38649 16.7104 5.49434 16.8969L9.3227 23.2944H20.9301L14.1326 11.9525L10.5925 17.8571C10.4429 18.0925 10.283 18.2119 10.1126 18.2153C9.94128 18.2187 9.78085 18.1585 9.63131 18.0345C9.48086 17.9094 9.38207 17.7304 9.33494 17.4973C9.28781 17.2642 9.33947 17.03 9.48992 16.7946L13.2544 10.5335C13.3641 10.3493 13.4968 10.2111 13.6527 10.119C13.8086 10.0269 13.9686 9.98147 14.1326 9.9826C14.2967 9.98374 14.4571 10.0292 14.6139 10.119C14.7707 10.2089 14.903 10.3465 15.0109 10.5318L22.3318 22.7964C22.6019 23.2558 22.6368 23.7379 22.4365 24.2427C22.2362 24.7476 21.9085 25 21.4535 25H1.12626Z" fill="#888888"/>
</svg>
