<svg width="35" height="35" viewBox="0 0 35 35" fill="none" xmlns="http://www.w3.org/2000/svg">
<rect width="35" height="35" rx="5" fill="#F7931D"/>
<path d="M10 17.646C7.852 18.47 6.5 19.6675 6.5 21C6.5 23.485 11.201 25.5 17 25.5C22.799 25.5 27.5 23.485 27.5 21C27.5 20.2815 27.107 19.6025 26.4085 19" stroke="white" stroke-width="1.5" stroke-linecap="round" stroke-linejoin="round"/>
<path d="M17 5.5C15 7.847 15 11.653 17 14C19 16.347 19 20.153 17 22.5M11.5 7.5C9.5 9.295 9.5 12.205 11.5 14C13.5 15.795 13.5 18.705 11.5 20.5M22.5 7.5C20.5 9.295 20.5 12.205 22.5 14C24.5 15.795 24.5 18.705 22.5 20.5" stroke="white" stroke-width="1.5" stroke-linecap="round" stroke-linejoin="round"/>
</svg>
