<svg width="56" height="45" viewBox="0 0 56 45" fill="none" xmlns="http://www.w3.org/2000/svg">
<path fill-rule="evenodd" clip-rule="evenodd" d="M0 23.9062V21.0938C0 11.8491 0 7.22531 2.5424 4.11187C3.00746 3.54276 3.52702 3.02089 4.0936 2.55375C7.196 0 11.7936 0 21 0C30.2036 0 34.8068 0 37.9064 2.55375C38.473 3.02089 38.9925 3.54276 39.4576 4.11187C41.4232 6.51656 41.8684 9.82406 41.9692 15.4688L43.8452 14.5406C49.2912 11.8069 52.0156 10.4372 54.0092 11.6747C56.0028 12.9122 56 15.975 56 22.0894V22.9106C56 29.0278 56 32.0878 54.0092 33.3253C52.0156 34.5628 49.2912 33.1931 43.8452 30.4566L41.9692 29.5312C41.8684 35.1759 41.4232 38.4834 39.4576 40.8881C38.9925 41.4572 38.473 41.9791 37.9064 42.4462C34.804 45 30.2064 45 21 45C11.7964 45 7.1932 45 4.0936 42.4462C3.52702 41.9791 3.00746 41.4572 2.5424 40.8881C0 37.7719 0 33.1538 0 23.9062ZM32.368 15.6375C32.7757 15.2499 33.102 14.7842 33.3275 14.2678C33.553 13.7513 33.6731 13.1948 33.6808 12.6309C33.6884 12.0671 33.5835 11.5075 33.3722 10.9851C33.1608 10.4626 32.8474 9.9881 32.4503 9.58947C32.0533 9.19083 31.5807 8.8762 31.0605 8.66416C30.5403 8.45212 29.9831 8.34698 29.4218 8.35495C28.8604 8.36292 28.3064 8.48385 27.7924 8.71058C27.2784 8.93731 26.8149 9.26525 26.4292 9.675C25.6645 10.471 25.2417 11.5369 25.2517 12.643C25.2618 13.7492 25.704 14.8071 26.4831 15.5889C27.2622 16.3707 28.3158 16.8139 29.4171 16.823C30.5183 16.8321 31.5762 16.4064 32.368 15.6375Z" fill="#174B8B"/>
</svg>
