<svg width="24" height="21" viewBox="0 0 24 21" fill="none" xmlns="http://www.w3.org/2000/svg">
<rect x="0.5" y="0.5" width="22.8394" height="19.9905" rx="9.99523" fill="#F2F4F6"/>
<rect x="0.5" y="0.5" width="22.8394" height="19.9905" rx="9.99523" stroke="#E4E6E8"/>
<path d="M14.1187 4.24987H8.88125C6.60626 4.24987 5.25 5.60613 5.25 7.88113V13.1124C5.25 15.3936 6.60626 16.7499 8.88125 16.7499H14.1125C16.3875 16.7499 17.7437 15.3936 17.7437 13.1186V7.88113C17.75 5.60613 16.3937 4.24987 14.1187 4.24987ZM11.5 12.9249C10.1625 12.9249 9.075 11.8374 9.075 10.4999C9.075 9.16237 10.1625 8.07487 11.5 8.07487C12.8375 8.07487 13.925 9.16237 13.925 10.4999C13.925 11.8374 12.8375 12.9249 11.5 12.9249ZM15.2 7.29988C15.1687 7.37488 15.125 7.44363 15.0688 7.50613C15.0062 7.56238 14.9375 7.60612 14.8625 7.63738C14.7875 7.66863 14.7062 7.68738 14.625 7.68738C14.4563 7.68738 14.3 7.62487 14.1812 7.50613C14.125 7.44363 14.0813 7.37488 14.05 7.29988C14.0188 7.22488 14 7.14363 14 7.06237C14 6.98113 14.0188 6.89988 14.05 6.82488C14.0813 6.74362 14.125 6.68113 14.1812 6.61863C14.325 6.47488 14.5438 6.40612 14.7437 6.44988C14.7875 6.45613 14.825 6.46863 14.8625 6.48738C14.9 6.49987 14.9375 6.51862 14.975 6.54363C15.0062 6.56238 15.0375 6.59362 15.0688 6.61863C15.125 6.68113 15.1687 6.74362 15.2 6.82488C15.2312 6.89988 15.25 6.98113 15.25 7.06237C15.25 7.14363 15.2312 7.22488 15.2 7.29988Z" fill="url(#paint0_linear_578_6964)"/>
<defs>
<linearGradient id="paint0_linear_578_6964" x1="11.4969" y1="4.24987" x2="11.4969" y2="16.7499" gradientUnits="userSpaceOnUse">
<stop stop-color="#E38384"/>
<stop offset="1" stop-color="#986BEB"/>
</linearGradient>
</defs>
</svg>
