<svg width="18" height="22" viewBox="0 0 18 22" fill="none" xmlns="http://www.w3.org/2000/svg">
<path d="M8.98925 1.19024e-05C7.23382 0.00429981 5.51792 0.500152 4.05226 1.42667C2.5866 2.3532 1.435 3.67005 0.738887 5.21551C0.0427711 6.76098 -0.167553 8.46777 0.133744 10.1263C0.435041 11.7848 1.23484 13.3228 2.43492 14.5514V22L8.98925 19.6429L15.5436 22V14.5514C16.7513 13.3254 17.5577 11.7867 17.8632 10.1258C18.1687 8.46479 17.9599 6.75437 17.2625 5.20605C16.5651 3.65772 15.4097 2.3394 13.9393 1.41412C12.4689 0.488849 10.7479 -0.00278913 8.98925 1.19024e-05ZM8.98925 2.35715C10.7276 2.35715 12.3947 3.0194 13.6239 4.1982C14.853 5.377 15.5436 6.97579 15.5436 8.64286C15.5436 10.3099 14.853 11.9087 13.6239 13.0875C12.3947 14.2663 10.7276 14.9286 8.98925 14.9286C7.25093 14.9286 5.58381 14.2663 4.35464 13.0875C3.12546 11.9087 2.43492 10.3099 2.43492 8.64286C2.43492 6.97579 3.12546 5.377 4.35464 4.1982C5.58381 3.0194 7.25093 2.35715 8.98925 2.35715ZM8.98925 5.50001C8.12009 5.50001 7.28653 5.83113 6.67194 6.42053C6.05735 7.00993 5.71208 7.80933 5.71208 8.64286C5.71208 9.4764 6.05735 10.2758 6.67194 10.8652C7.28653 11.4546 8.12009 11.7857 8.98925 11.7857C9.8584 11.7857 10.692 11.4546 11.3065 10.8652C11.9211 10.2758 12.2664 9.4764 12.2664 8.64286C12.2664 7.80933 11.9211 7.00993 11.3065 6.42053C10.692 5.83113 9.8584 5.50001 8.98925 5.50001Z" fill="#124F16"/>
</svg>
