<svg width="8" height="12" viewBox="0 0 8 12" fill="none" xmlns="http://www.w3.org/2000/svg">
<path d="M3.99998 0C1.79438 0 0 1.94958 0 4.34592C0 7.31986 3.57959 11.6858 3.732 11.8702C3.87515 12.0434 4.12508 12.0431 4.26797 11.8702C4.42037 11.6858 8 7.31986 8 4.34592C7.99993 1.94958 6.20557 0 3.99998 0ZM3.99998 6.53248C2.89029 6.53248 1.98751 5.55159 1.98751 4.34592C1.98751 3.14025 2.89031 2.15939 3.99998 2.15939C5.10966 2.15939 6.01243 3.14027 6.01243 4.34594C6.01243 5.55162 5.10966 6.53248 3.99998 6.53248Z" fill="#F7931D"/>
</svg>
