<svg width="8" height="12" viewBox="0 0 8 12" fill="none" xmlns="http://www.w3.org/2000/svg">
<path d="M4 0.25C4.99048 0.25 5.94316 0.662872 6.64746 1.40234C7.35216 2.14228 7.75 3.14876 7.75 4.2002C7.74996 4.93939 7.51437 5.78484 7.14551 6.64941C6.77785 7.51112 6.28553 8.37537 5.79004 9.14648C5.295 9.91688 4.79864 10.5902 4.42676 11.0713C4.25317 11.2959 4.10657 11.4781 4 11.6084C3.89343 11.4781 3.74683 11.2959 3.57324 11.0713C3.20136 10.5902 2.705 9.91688 2.20996 9.14648C1.71447 8.37537 1.22215 7.51112 0.854492 6.64941C0.485632 5.78484 0.250041 4.93939 0.25 4.2002C0.25 3.14876 0.647837 2.14228 1.35254 1.40234C2.05684 0.662872 3.00952 0.25 4 0.25ZM4 2.4502C3.55077 2.4502 3.12234 2.63736 2.80859 2.9668C2.49527 3.29581 2.32129 3.73991 2.32129 4.2002C2.32134 4.66026 2.49549 5.10368 2.80859 5.43262C3.12234 5.76205 3.55077 5.9502 4 5.9502C4.22215 5.9502 4.44196 5.90437 4.64648 5.81543C4.85099 5.72648 5.03613 5.59566 5.19141 5.43262C5.34643 5.26975 5.46939 5.07738 5.55273 4.86621C5.63611 4.65486 5.67869 4.4283 5.67871 4.2002C5.67871 3.73991 5.50473 3.29581 5.19141 2.9668C4.87766 2.63736 4.44923 2.4502 4 2.4502Z" fill="white" stroke="#242424" stroke-width="0.5"/>
</svg>
