<svg width="159" height="38" viewBox="0 0 159 38" fill="none" xmlns="http://www.w3.org/2000/svg">
<path d="M8.94922 20.4655C8.94922 26.3464 13.7359 31.1138 19.6406 31.1138C25.5454 31.1138 30.3323 26.3464 30.3323 20.4655C30.3323 14.5846 25.5454 9.81721 19.6406 9.81721C13.7359 9.81721 8.94922 14.5846 8.94922 20.4655Z" fill="white"/>
<path d="M4.35938 19.0001C4.35938 27.188 11.0238 33.8255 19.2448 33.8255C27.4658 33.8255 34.1302 27.188 34.1302 19.0001C34.1302 10.8122 27.4658 4.17463 19.2448 4.17463C11.0238 4.17463 4.35938 10.8122 4.35938 19.0001Z" fill="#0A579D"/>
<path d="M5.01562 18.7895C5.01562 26.5886 11.3637 32.9111 19.1943 32.9111C27.0252 32.9111 33.3735 26.5886 33.3735 18.7895C33.3735 10.9904 27.0252 4.66794 19.1943 4.66794C11.3637 4.66794 5.01562 10.9904 5.01562 18.7895Z" fill="white"/>
<path fill-rule="evenodd" clip-rule="evenodd" d="M12.2494 9.86433L6.26562 17.5215L12.1812 10.7458L10.0621 16.0588L12.5608 12.4032L11.8398 15.2477L13.243 13.3416L13.9907 12.3198L13.7518 14.7438L15.6977 11.7531L15.0491 13.9253L18.0098 9.07097L22.239 14.2171L19.8351 8.9954C20.7798 10.4355 23.8947 14.2144 23.6624 13.7258C23.43 13.2371 21.6734 9.4885 21.6734 9.4885C21.6734 9.4885 24.3808 13.093 24.2703 12.9003C24.2045 12.7857 23.0193 10.6507 22.0699 8.93979L27.0664 16.3566L24.988 11.5385C25.6786 12.3608 28.0656 15.1992 28.0401 15.1286C28.0102 15.0461 26.1604 11.7856 26.1604 11.7856L31.2179 17.5215L25.7013 10.0848L24.3355 11.3755L20.7847 6.36976L19.1801 8.7938L17.8146 7.28287L14.5027 11.8791L12.2494 9.86433Z" fill="#0A579D"/>
<path fill-rule="evenodd" clip-rule="evenodd" d="M8.61778 17.5753C8.64007 17.3833 8.76188 17.4488 9.11491 17.3513C9.33263 16.7092 9.88559 16.7819 10.1853 17.031C10.2312 17.0362 10.2697 17.0422 10.2942 17.0454C10.4789 17.0943 10.4295 17.4006 10.4419 17.4741C10.5158 17.4741 10.5158 17.6457 10.6018 17.6089C10.6756 17.5232 10.9096 17.6825 11.0201 17.6825C11.1187 17.658 11.1063 17.7071 11.2171 17.7316C11.377 17.6703 11.4877 17.8051 11.5861 17.854C11.7214 17.7804 12.1276 17.9643 12.2875 18.0991C12.4845 18.2339 12.2136 18.3933 12.2999 18.4177C12.4476 18.4301 12.5336 18.5893 12.5705 18.6261C12.6074 18.6628 12.8659 18.8835 12.878 18.9691C12.9888 19.0674 13.2718 19.4472 13.2718 19.4472C13.2718 19.4472 13.481 19.4105 13.764 19.349C14.1332 19.251 14.5268 19.2387 14.5268 19.2387C14.5268 19.2387 14.5637 19.3737 14.5146 19.4226C13.6287 19.4226 13.3702 19.5697 13.3702 19.6188C13.5672 19.6677 13.3333 20.1455 13.3211 20.2314C13.4934 20.3538 13.4195 20.6359 13.4441 20.6848C13.5548 20.7093 13.7025 20.6972 13.7025 20.6972L13.7271 20.8073C13.7271 20.8073 13.5672 20.8196 13.5548 20.8319C13.8748 21.1138 14.0594 21.1015 14.0715 21.1138C14.2685 21.6284 13.9486 21.5795 13.8133 21.6161C13.6041 21.604 13.5179 21.3221 13.481 21.3344C13.2842 21.5549 12.6689 21.4569 12.5583 21.4078C12.4106 21.3589 12.3982 21.175 12.3368 21.175C12.2999 21.4569 12.1767 22.3882 12.226 22.4249C12.3982 22.3637 12.4106 22.4985 12.3489 22.5597C12.595 22.6088 13.0136 23.0867 13.0996 23.1725C13.2594 23.2582 13.7271 23.7731 13.7764 23.8343C13.9732 23.8587 14.0963 24.0058 14.0715 24.0547C13.678 24.8514 13.112 25.0598 13.112 25.0598L13.0996 25.0107C13.0996 25.0107 13.0627 25.0842 12.9028 25.1086C12.7427 25.1333 12.9888 24.888 13.1365 24.79C13.3087 24.6676 13.1734 24.4469 13.161 24.3366C13.161 24.2265 13.0996 24.1406 13.0136 24.067C12.878 23.9691 12.7427 23.9076 12.7306 23.8098C11.9185 23.3073 11.5371 22.8539 11.4508 22.67C11.34 22.4617 11.2171 22.5965 11.2786 22.67C11.4508 22.7804 11.254 22.9275 11.3155 23.001C11.4754 23.099 11.3524 24.1162 11.4139 24.2018C11.4754 24.2877 11.3279 24.496 11.4139 24.5205C11.5001 24.5449 11.4263 24.8144 11.4263 24.8144L11.377 25.2557C11.377 25.2557 10.1344 25.0598 10.1344 24.9739C10.1344 24.888 10.3557 24.7167 10.3926 24.6799C10.4295 24.6429 10.6266 24.4716 10.6266 24.4716L10.5649 24.4592C10.5649 24.4592 10.6018 24.0182 10.5896 23.8466C10.2942 23.2705 10.2821 22.7436 10.2328 22.6088C10.2452 22.3514 10.8479 21.273 10.9217 21.175C10.9956 21.077 10.9217 20.9299 10.8603 20.8931C10.5908 20.8348 10.6338 20.6099 10.713 20.6415C10.3294 20.4438 10.2325 19.4948 10.2204 19.3613C10.0975 19.2142 10.1344 18.8956 10.122 18.8344C10.0605 18.6016 9.7406 18.479 9.7406 18.479V18.42C9.71673 18.4272 9.69804 18.439 9.69512 18.4498C9.52243 18.557 9.45488 18.3626 9.40085 18.3137C9.36708 18.2164 9.30674 18.1094 9.30674 18.1094C9.18246 18.1087 9.21285 17.9843 9.21983 17.9435C9.21735 17.8798 9.16669 17.7461 9.15544 17.7385C8.61778 17.8569 8.61351 17.6304 8.61778 17.5753Z" fill="#231F20"/>
<path fill-rule="evenodd" clip-rule="evenodd" d="M6.13281 24.5159C6.13281 24.5159 7.74127 24.7897 8.15306 24.92C8.4354 25.0095 8.51825 25.099 8.58783 25.1546C9.34815 25.0449 10.779 24.9451 11.7755 25.5221C12.8713 25.5735 13.7311 25.0779 14.2032 25.2147C14.6752 25.3515 15.2821 25.4539 15.8891 26.0347C16.4961 26.6153 16.7321 27.3669 17.3053 28.0502C17.8786 28.7335 17.6426 27.5719 18.654 28.8019C19.6656 30.0316 19.4971 29.5876 19.8004 30.4415C20.1041 31.2956 20.3739 31.7056 20.7447 31.9105C21.1155 32.1155 20.0377 32.3881 21.8574 32.4229C23.677 32.4579 22.9701 32.8671 24.0827 32.7987C25.1956 32.7303 18.9025 33.2418 18.9025 33.2418L13.9637 32.2697L8.72629 29.2912L6.13281 24.5159Z" fill="#0A579D"/>
<path fill-rule="evenodd" clip-rule="evenodd" d="M20.3555 32.1906C20.3555 32.1906 20.5959 30.7604 20.9465 30.5088C21.1869 30.3364 23.5055 30.4754 23.592 30.4528C23.9567 29.7791 23.8892 29.0486 24.9483 28.5954C25.6426 27.7495 25.7556 26.7667 26.1472 26.4705C26.5387 26.1745 26.9831 25.7502 27.813 25.6109C28.6429 25.4717 29.3895 25.7309 30.282 25.6796C31.1745 25.6284 30.0974 25.1248 31.6919 25.0488C33.2862 24.9728 32.5009 25.0456 32.5009 25.0456L28.097 30.3332L22.9814 33.1304L20.3555 32.1906Z" fill="#0A579D"/>
<path fill-rule="evenodd" clip-rule="evenodd" d="M20.4026 24.8311C20.4026 24.8311 20.5073 25.2134 20.5771 25.4045C20.5944 25.6652 20.5595 26.0301 20.8214 26.2734C20.8563 26.4299 20.8387 26.7427 20.9959 26.9338C21.0656 27.1423 21.2228 27.5594 21.5367 27.907C21.6065 27.9592 21.5716 28.8282 21.973 29.2453C21.9903 29.3668 22.0079 29.6276 21.973 29.7319C22.0252 29.7839 22.1824 29.7144 22.1824 29.7144C22.1824 29.7144 22.3044 29.7839 22.095 29.9056C22.0079 29.9577 21.0308 30.253 21.432 30.3575C21.4844 30.3575 23.3165 30.3922 23.3165 30.3922C23.3165 30.3922 23.5434 29.9752 23.3689 29.6796C23.2991 29.4883 22.6012 27.1076 22.2346 27.038C22.1648 27.0033 22.1824 26.6037 22.0252 26.5862C21.9903 26.4994 22.1824 25.6652 22.1475 25.3524C22.1824 25.2829 22.322 25.2309 22.3569 24.8136C22.4616 24.8311 22.793 24.5878 22.6534 24.2922C22.793 24.2922 23.9273 24.3445 24.3634 23.354C24.3634 23.3713 24.5205 24.0664 24.5205 24.0664L24.695 24.0316C24.695 24.0316 24.6601 23.2495 24.4856 23.0237C24.5379 22.9542 24.6077 22.7109 24.4681 22.3981C24.3983 22.172 23.8575 20.7819 23.7701 20.2779C23.7528 20.0518 23.805 19.826 23.6132 19.6347C23.6305 19.4437 23.8399 18.8701 23.456 18.766C23.1769 18.6963 22.6361 18.6443 22.6012 19.0093C22.4789 19.0439 20.9783 19.3221 20.7689 19.5132C20.6642 19.4784 20.5595 19.2524 20.7689 19.1134C21.0598 18.6384 19.9314 17.6246 19.3266 18.6848C18.8903 18.7196 18.7624 18.6153 18.6926 18.8353C18.675 18.8992 18.6284 19.1656 19.2859 19.1481C19.2973 19.1598 19.3266 19.3277 19.3149 19.4031C19.2973 19.4495 19.2334 19.5885 19.3788 19.6175C19.3788 19.6175 19.4254 19.7565 19.443 19.8783C19.4952 19.9478 19.5301 20.1911 19.7569 20.1041C19.7744 20.0693 19.9489 20.0518 19.9489 20.1736C19.9314 20.2779 19.7395 20.4344 19.8269 20.5212C19.8442 20.5732 19.6522 20.6602 19.7744 20.8165C19.7569 20.9382 19.4777 21.981 19.5128 22.4328C19.4254 22.5543 19.251 23.0757 19.3208 23.3017C19.1985 23.319 18.5357 23.1105 18.3436 23.267C18.2563 23.2843 17.8375 23.458 17.733 24.1359C17.6805 24.3445 16.8759 25.8749 16.562 26.4135C16.2479 26.9524 17.4014 28.0983 17.4014 28.0983L18.1169 26.4822C18.1169 26.4822 18.7624 25.3524 18.8495 24.5182L19.0067 24.5008C19.0067 24.5008 18.6228 25.0049 19.0067 25.3002C19.0589 25.3524 19.3556 25.3524 19.3556 25.3524C19.3556 25.3524 19.4603 25.2309 19.3032 25.1439C19.2685 25.0569 19.3732 24.6573 19.5475 24.7268C19.565 24.7441 19.6173 24.8831 19.8269 24.692C19.8618 24.692 20.2281 24.7963 20.4026 24.8311Z" fill="#231F20"/>
<path d="M41.7101 7.23593H38.4961V19.2771H41.7101V14.5974H44.5516V11.9159H41.7101V7.23593ZM48.0131 7.23593V11.9159H45.1687V14.5974H48.0131V19.2771H51.2239V7.23593H48.0131Z" fill="#174B8B"/>
<path d="M56.8713 7.23598H53.6602V19.2772H56.8713V7.23598Z" fill="#174B8B"/>
<path d="M70.1195 7.23593L66.3896 12.6373L62.6597 7.23593H59.3086V19.2771H62.5226V11.898L65.2326 15.8208H67.5463L70.2418 11.898V19.2771H73.4529V7.23593H70.1195Z" fill="#174B8B"/>
<path d="M83.9714 7.23593H80.1015L74.8359 19.2771H78.0471L80.2923 14.1518L82.0364 10.1788L82.3764 10.9536L83.7806 14.1518H80.975L79.7912 16.8512H84.9553L86.0255 19.2771H89.2398L83.9714 7.23593Z" fill="#F7931D"/>
<path d="M110.995 7.30136H107.125L101.859 19.3425H105.07L107.316 14.2172L109.06 10.2442L109.4 11.019L110.804 14.2172H107.998L106.815 16.9167H111.979L113.049 19.3425H116.263L110.995 7.30136Z" fill="#174B8B"/>
<path d="M134.635 7.23593H130.766L125.5 19.2771H128.711L130.956 14.1518L132.701 10.1788L133.04 10.9536L134.445 14.1518H131.639L130.455 16.8512H135.619L136.69 19.2771H139.904L134.635 7.23593Z" fill="#174B8B"/>
<path d="M93.8311 16.6434V7.28661H90.6172V19.3278H100.653V16.6434H93.8311Z" fill="#174B8B"/>
<path d="M123.844 7.23593L120.874 11.9486L117.92 7.23593H114.449L119.267 14.9241V19.2771H122.478V14.9241L127.314 7.23593H123.844Z" fill="#174B8B"/>
<path d="M150.889 7.23593V14.719L144.449 7.23593H141.234V19.2771H144.449V11.794L150.889 19.2771H154.103V7.23593H150.889Z" fill="#174B8B"/>
<path d="M49.3518 27.8926C49.2071 27.6646 49.015 27.4835 48.7759 27.346C48.5401 27.2084 48.2774 27.0944 47.9946 27.007C47.7114 26.9231 47.4253 26.8461 47.1356 26.7823C46.8459 26.7184 46.5834 26.6516 46.3476 26.5812C46.1118 26.5107 45.9231 26.4135 45.7784 26.2858C45.6334 26.1616 45.5627 25.9975 45.5627 25.7928C45.5627 25.6251 45.61 25.4741 45.711 25.3333C45.8119 25.1957 45.9704 25.085 46.1891 25.0011C46.4081 24.9206 46.6877 24.877 47.0277 24.877C47.3243 24.877 47.6341 24.9206 47.9574 25.0077C48.2774 25.0951 48.5905 25.2258 48.8937 25.407L49.2877 24.4342C48.9914 24.2429 48.6444 24.0955 48.2471 23.9914C47.8463 23.8908 47.4454 23.8404 47.0379 23.8404C46.4216 23.8404 45.9096 23.9311 45.509 24.1122C45.1048 24.2966 44.805 24.538 44.6096 24.8433C44.4143 25.1486 44.3166 25.4842 44.3166 25.8498C44.3166 26.2088 44.3873 26.5039 44.532 26.7354C44.677 26.9634 44.8691 27.1478 45.1081 27.289C45.3439 27.4262 45.6064 27.5405 45.8928 27.6277C46.1792 27.7181 46.4687 27.7954 46.7551 27.8556C47.0412 27.9162 47.3007 27.9833 47.5365 28.057C47.7723 28.1308 47.9643 28.228 48.1123 28.3555C48.2606 28.4796 48.3346 28.644 48.3346 28.8487C48.3346 29.0164 48.2807 29.1674 48.1797 29.2981C48.0754 29.4291 47.9137 29.5329 47.6947 29.6102C47.4757 29.6872 47.1895 29.7242 46.836 29.7242C46.4183 29.7242 46.0073 29.6538 45.61 29.5129C45.2091 29.3721 44.8757 29.1975 44.6063 28.9863L44.1719 29.9558C44.4613 30.1939 44.8454 30.3884 45.3236 30.5394C45.8053 30.6901 46.3072 30.7641 46.836 30.7641C47.4556 30.7641 47.9676 30.6734 48.3718 30.489C48.7759 30.3079 49.0789 30.0629 49.2742 29.7576C49.4695 29.4559 49.5708 29.1238 49.5708 28.7648C49.5708 28.4125 49.4965 28.1206 49.3518 27.8926Z" fill="#174B8B"/>
<path d="M57.1338 28.2549C57.016 28.5434 56.851 28.7917 56.6386 29.003C56.4264 29.2142 56.1739 29.3787 55.8877 29.4959C55.6013 29.6102 55.2882 29.6672 54.9479 29.6672C54.6078 29.6672 54.2878 29.6102 53.9948 29.4959C53.7018 29.3787 53.4492 29.2142 53.2371 28.9997C53.0247 28.7849 52.8563 28.5333 52.7353 28.2448C52.6139 27.9562 52.5534 27.6411 52.5534 27.3021C52.5534 26.9568 52.6139 26.6382 52.7353 26.3529C52.8563 26.0679 53.0247 25.8196 53.2371 25.6048C53.4492 25.3902 53.7018 25.2225 53.9948 25.1083C54.2878 24.9943 54.6078 24.934 54.9479 24.934C55.2882 24.934 55.6013 24.9943 55.8877 25.1083C56.1739 25.2225 56.4264 25.387 56.6421 25.5982C56.8576 25.8095 57.0226 26.0611 57.1404 26.3496C57.2551 26.6382 57.3124 26.9568 57.3124 27.3021C57.3124 27.6477 57.2551 27.9663 57.1338 28.2549ZM58.3092 25.9169C58.1273 25.4941 57.8747 25.1253 57.5514 24.8164C57.2246 24.5046 56.8408 24.2632 56.3962 24.0919C55.9516 23.9242 55.4701 23.8404 54.9479 23.8404C54.4191 23.8404 53.9343 23.9242 53.4897 24.0988C53.0451 24.2731 52.6577 24.5147 52.3311 24.8233C52.0009 25.1351 51.7484 25.501 51.5665 25.9202C51.3879 26.3428 51.2969 26.8023 51.2969 27.3021C51.2969 27.7954 51.3879 28.2516 51.5665 28.6709C51.7484 29.0934 52.0009 29.4592 52.3311 29.7744C52.6577 30.0898 53.0451 30.3314 53.493 30.5057C53.9409 30.6767 54.426 30.7641 54.9479 30.7641C55.4701 30.7641 55.9516 30.6803 56.3962 30.509C56.8408 30.338 57.2246 30.0966 57.5514 29.7845C57.8747 29.4691 58.1273 29.1035 58.3092 28.681C58.4877 28.2617 58.5788 27.8019 58.5788 27.3021C58.5788 26.8023 58.4877 26.3395 58.3092 25.9169Z" fill="#174B8B"/>
<path d="M65.0492 29.4692C64.746 29.6035 64.4227 29.6671 64.0758 29.6671C63.7223 29.6671 63.3954 29.6101 63.1024 29.4961C62.8094 29.3788 62.5568 29.2144 62.3414 29.0028C62.1257 28.7916 61.9573 28.5433 61.8326 28.255C61.7116 27.9665 61.6508 27.6478 61.6508 27.3022C61.6508 26.9567 61.7116 26.638 61.8326 26.3495C61.9573 26.0612 62.1257 25.8096 62.3414 25.5981C62.5568 25.3868 62.8094 25.2224 63.1024 25.1084C63.3954 24.9944 63.7223 24.9341 64.0758 24.9341C64.4227 24.9341 64.746 25.001 65.0492 25.132C65.3524 25.2627 65.6284 25.4605 65.8812 25.7258L66.6929 24.9643C66.3762 24.5919 65.9888 24.3102 65.5343 24.1222C65.0762 23.9345 64.571 23.8405 64.0153 23.8405C63.4966 23.8405 63.0149 23.9243 62.5772 24.0921C62.1391 24.263 61.7553 24.5047 61.4285 24.8199C61.0986 25.1353 60.846 25.5008 60.6642 25.9168C60.4856 26.3327 60.3945 26.7958 60.3945 27.3022C60.3945 27.8086 60.4856 28.2717 60.6642 28.6877C60.846 29.1037 61.0986 29.4692 61.4252 29.7846C61.7485 30.0965 62.1292 30.3381 62.567 30.5091C63.0047 30.6801 63.4865 30.764 64.0084 30.764C64.5675 30.764 65.0762 30.6667 65.5343 30.4754C65.9888 30.2844 66.3762 30.0025 66.6929 29.6303L65.8812 28.8688C65.6284 29.1371 65.3524 29.3385 65.0492 29.4692Z" fill="#174B8B"/>
<path d="M70.1234 23.9343H68.8672V30.6667H70.1234V23.9343Z" fill="#174B8B"/>
<path d="M77.338 28.1275H76.8631L77.284 29.1104H77.6747L77.338 28.1275ZM73.6971 28.1275L73.3469 29.1104H73.9027L74.3269 28.1275H73.6971ZM76.2264 23.9344H74.9905L71.9492 30.6668H73.2324L73.9027 29.1104L74.3269 28.1275L75.5966 25.1823L76.8631 28.1275L77.284 29.1104L77.9542 30.6668H79.2779L76.2264 23.9344Z" fill="#174B8B"/>
<path d="M82.35 29.6101V23.9343H81.0938V30.6668H85.8865V29.6101H82.35Z" fill="#174B8B"/>
<path d="M91.1374 23.9343V24.9943H93.5456V28.4662C93.5456 29.2915 93.1954 29.7075 92.5015 29.7075C92.2321 29.7075 91.9829 29.6436 91.7606 29.5129C91.5382 29.3852 91.336 29.1942 91.1476 28.9358L90.4336 29.7845C90.6658 30.1032 90.9624 30.3481 91.3261 30.5158C91.6898 30.6803 92.0871 30.7641 92.5117 30.7641C93.2559 30.7641 93.8251 30.5696 94.209 30.1769C94.5963 29.7878 94.7884 29.1942 94.7884 28.399V23.9343H91.1374Z" fill="#174B8B"/>
<path d="M102.876 28.2549C102.758 28.5434 102.59 28.7917 102.377 29.003C102.165 29.2142 101.916 29.3787 101.63 29.4959C101.344 29.6102 101.03 29.6672 100.69 29.6672C100.347 29.6672 100.03 29.6102 99.737 29.4959C99.444 29.3787 99.1914 29.2142 98.9793 28.9997C98.7669 28.7849 98.5985 28.5333 98.4775 28.2448C98.3561 27.9562 98.292 27.6411 98.292 27.3021C98.292 26.9568 98.3561 26.6382 98.4775 26.3529C98.5985 26.0679 98.7669 25.8196 98.9793 25.6048C99.1914 25.3902 99.444 25.2225 99.737 25.1083C100.03 24.9943 100.347 24.934 100.69 24.934C101.03 24.934 101.344 24.9943 101.63 25.1083C101.916 25.2225 102.169 25.387 102.384 25.5982C102.6 25.8095 102.765 26.0611 102.879 26.3496C102.997 26.6382 103.055 26.9568 103.055 27.3021C103.055 27.6477 102.994 27.9663 102.876 28.2549ZM104.048 25.9169C103.869 25.4941 103.617 25.1253 103.29 24.8164C102.967 24.5046 102.583 24.2632 102.138 24.0919C101.694 23.9242 101.209 23.8404 100.69 23.8404C100.161 23.8404 99.6729 23.9242 99.2319 24.0988C98.7873 24.2731 98.3999 24.5147 98.0697 24.8233C97.7431 25.1351 97.4873 25.501 97.3087 25.9202C97.1268 26.3428 97.0391 26.8023 97.0391 27.3021C97.0391 27.7954 97.1268 28.2516 97.3087 28.6709C97.4873 29.0934 97.7431 29.4592 98.0697 29.7744C98.3999 30.0898 98.7873 30.3314 99.2352 30.5057C99.6831 30.6767 100.168 30.7641 100.69 30.7641C101.209 30.7641 101.694 30.6803 102.138 30.509C102.583 30.338 102.967 30.0966 103.29 29.7845C103.617 29.4691 103.869 29.1035 104.048 28.681C104.23 28.2617 104.321 27.8019 104.321 27.3021C104.321 26.8023 104.23 26.3395 104.048 25.9169Z" fill="#174B8B"/>
<path d="M111.247 23.9343V27.6846C111.247 28.379 111.099 28.8821 110.803 29.1975C110.507 29.5094 110.086 29.6672 109.536 29.6672C108.991 29.6672 108.567 29.5094 108.267 29.1975C107.967 28.8821 107.819 28.379 107.819 27.6846V23.9343H106.562V27.7249C106.562 28.7111 106.825 29.4658 107.351 29.9859C107.873 30.5057 108.597 30.7641 109.516 30.7641C110.446 30.7641 111.17 30.5057 111.695 29.9859C112.221 29.4658 112.484 28.7111 112.484 27.7249V23.9343H111.247Z" fill="#174B8B"/>
<path d="M116.471 24.9944H117.939C118.492 24.9944 118.91 25.1117 119.189 25.3432C119.472 25.5781 119.61 25.9069 119.61 26.3295C119.61 26.7523 119.472 27.0841 119.189 27.319C118.91 27.5571 118.492 27.6779 117.939 27.6779H116.471V24.9944ZM119.438 28.4562C119.472 28.446 119.506 28.4293 119.539 28.4159C119.967 28.2249 120.297 27.9531 120.53 27.6009C120.758 27.2485 120.877 26.8227 120.877 26.3295C120.877 25.8296 120.758 25.4002 120.53 25.0413C120.297 24.6826 119.967 24.4075 119.539 24.2195C119.108 24.0282 118.596 23.9345 117.997 23.9345H115.215V30.6667H116.471V28.7044H117.997C118.088 28.7044 118.175 28.7011 118.263 28.6978L119.64 30.6667H120.991L119.438 28.4562Z" fill="#174B8B"/>
<path d="M128.001 23.9343V28.5031L124.273 23.9343H123.238V30.6668H124.485V26.1013L128.203 30.6668H129.237V23.9343H128.001Z" fill="#174B8B"/>
<path d="M133.288 29.6101V24.9945H136.965V23.9343H132.031V30.6668H137.1V29.6101H133.288ZM133.19 27.7618H136.551V26.7353H133.19V27.7618Z" fill="#174B8B"/>
<path d="M143.802 23.9343L141.811 27.215L139.814 23.9343H138.48L141.138 28.2886V30.6668H142.384V28.3053L145.038 23.9343H143.802Z" fill="#174B8B"/>
</svg>
