<svg width="20" height="18" viewBox="0 0 20 18" fill="none" xmlns="http://www.w3.org/2000/svg">
<path d="M10.7562 12.0149L12.8732 8.87488L10.7562 12.0149ZM12.8732 8.87488L13.1242 8.50488C13.2858 8.25996 13.5103 8.06299 13.7741 7.93458C14.038 7.80616 14.3315 7.75103 14.624 7.77495C14.9164 7.79887 15.1971 7.90096 15.4366 8.07054C15.676 8.24012 15.8655 8.47096 15.9852 8.73888L18.5812 14.2799C19.1172 15.4219 18.3112 16.7499 17.0842 16.7499H2.41619C1.19219 16.7499 0.386192 15.4299 0.915192 14.2879L6.72319 1.72788C6.85284 1.43441 7.06567 1.18538 7.33535 1.0116C7.60504 0.837809 7.91975 0.746889 8.24057 0.750081C8.56139 0.753273 8.87423 0.850438 9.1404 1.02956C9.40658 1.20867 9.61441 1.46189 9.73819 1.75788L12.8732 8.87488Z" fill="white"/>
<path d="M10.7562 12.0149L12.8732 8.87488M12.8732 8.87488L13.1242 8.50488C13.2858 8.25996 13.5103 8.06299 13.7741 7.93458C14.038 7.80616 14.3315 7.75103 14.624 7.77495C14.9164 7.79887 15.1971 7.90096 15.4366 8.07054C15.676 8.24012 15.8655 8.47096 15.9852 8.73888L18.5812 14.2799C19.1172 15.4219 18.3112 16.7499 17.0842 16.7499H2.41619C1.19219 16.7499 0.386192 15.4299 0.915192 14.2879L6.72319 1.72788C6.85284 1.43441 7.06567 1.18538 7.33535 1.0116C7.60504 0.837809 7.91976 0.746889 8.24057 0.750081C8.56139 0.753273 8.87423 0.850438 9.1404 1.02956C9.40658 1.20867 9.61441 1.46189 9.73819 1.75788L12.8732 8.87488Z" stroke="#174B8B" stroke-width="1.5" stroke-linecap="round" stroke-linejoin="round"/>
</svg>
