<svg width="35" height="35" viewBox="0 0 35 35" fill="none" xmlns="http://www.w3.org/2000/svg">
<rect width="35" height="35" rx="5" fill="#F7931D"/>
<path d="M7.5 25.5V15.5H8.5V17.5H11.366L14.475 7.202V5.5H15.475V7.5H18.5V5.5H19.5V7.077L22.634 17.5H25.5V15.5H26.5V25.5H18.5V20.5H15.5V25.5H7.5ZM13.027 15.5H20.973L20.066 12.5H13.934L13.027 15.5ZM14.227 11.5H19.773L18.866 8.5H15.135L14.227 11.5ZM8.5 24.5H14.5V19.5H19.5V24.5H25.5V18.5H21.866L21.266 16.5H12.734L12.134 18.5H8.5V24.5Z" fill="white"/>
</svg>
