<svg width="40" height="38" viewBox="0 0 40 38" fill="none" xmlns="http://www.w3.org/2000/svg">
<path d="M20 0.5C22.5642 0.5 25.1029 0.979421 27.4707 1.91113C29.8384 2.84284 31.9882 4.20855 33.7979 5.92773C35.6074 7.64683 37.0417 9.68606 38.0195 11.9287C38.9974 14.1714 39.5 16.5742 39.5 19C39.5 22.6531 38.3601 26.2268 36.2207 29.2686C34.081 32.3106 31.0368 34.6856 27.4707 36.0889C23.9045 37.4922 19.9788 37.8592 16.1914 37.1436C12.4039 36.4279 8.92778 34.6616 6.20215 32.0723C3.47697 29.4833 1.6244 26.188 0.874023 22.6045C0.123714 19.021 0.507925 15.306 1.98047 11.9287C3.45314 8.55113 5.94899 5.65993 9.15625 3.62402C12.3638 1.58796 16.1377 0.500001 20 0.5ZM15.5 28.5205L16.29 27.957L28.29 19.4072L28.8613 19L28.29 18.5928L16.29 10.043L15.5 9.47949V28.5205Z" fill="white" stroke="#174B8B"/>
</svg>
