<svg width="18" height="19" viewBox="0 0 18 19" fill="none" xmlns="http://www.w3.org/2000/svg">
<path d="M15.75 17.75C16.0152 17.75 16.2696 17.6477 16.4571 17.4655C16.6446 17.2833 16.75 17.0362 16.75 16.7786V15.5682C16.754 12.8423 12.776 10.7071 8.75 10.7071C4.724 10.7071 0.75 12.8423 0.75 15.5682V16.7786C0.75 17.0362 0.855357 17.2833 1.04289 17.4655C1.23043 17.6477 1.48478 17.75 1.75 17.75H15.75ZM12.354 4.25103C12.354 4.71079 12.2608 5.16605 12.0797 5.59081C11.8985 6.01558 11.6331 6.40153 11.2984 6.72663C10.9637 7.05173 10.5664 7.30961 10.1292 7.48556C9.69193 7.6615 9.22328 7.75206 8.75 7.75206C8.27671 7.75206 7.80806 7.6615 7.37081 7.48556C6.93355 7.30961 6.53625 7.05173 6.20159 6.72663C5.86692 6.40153 5.60145 6.01558 5.42034 5.59081C5.23922 5.16605 5.146 4.71079 5.146 4.25103C5.146 3.3225 5.52571 2.432 6.20159 1.77543C6.87747 1.11886 7.79416 0.75 8.75 0.75C9.70584 0.75 10.6225 1.11886 11.2984 1.77543C11.9743 2.432 12.354 3.3225 12.354 4.25103Z" stroke="black" stroke-width="1.5" stroke-linecap="round" stroke-linejoin="round"/>
</svg>
