<svg width="28" height="30" viewBox="0 0 28 30" fill="none" xmlns="http://www.w3.org/2000/svg">
<g filter="url(#filter0_d_578_9277)">
<path d="M14.5932 21.2579L14.5822 21.2599L14.5112 21.2949L14.4912 21.2989L14.4772 21.2949L14.4062 21.2599C14.3955 21.2566 14.3875 21.2583 14.3822 21.2649L14.3782 21.2749L14.3612 21.7029L14.3662 21.7229L14.3762 21.7359L14.4802 21.8099L14.4952 21.8139L14.5072 21.8099L14.6112 21.7359L14.6232 21.7199L14.6272 21.7029L14.6102 21.2759C14.6075 21.2653 14.6018 21.2593 14.5932 21.2579ZM14.8582 21.1449L14.8452 21.1469L14.6602 21.2399L14.6502 21.2499L14.6472 21.2609L14.6652 21.6909L14.6702 21.7029L14.6782 21.7099L14.8792 21.8029C14.8918 21.8063 14.9015 21.8036 14.9082 21.7949L14.9122 21.7809L14.8782 21.1669C14.8748 21.1549 14.8682 21.1476 14.8582 21.1449ZM14.1432 21.1469C14.1388 21.1443 14.1335 21.1434 14.1285 21.1445C14.1234 21.1456 14.119 21.1487 14.1162 21.1529L14.1102 21.1669L14.0762 21.7809C14.0768 21.7929 14.0825 21.8009 14.0932 21.8049L14.1082 21.8029L14.3092 21.7099L14.3192 21.7019L14.3232 21.6909L14.3402 21.2609L14.3372 21.2489L14.3272 21.2389L14.1432 21.1469Z" fill="#F7931D"/>
<path d="M14 0C19.523 0 24 4.477 24 10C24 15.523 19.523 20 14 20C8.477 20 4 15.523 4 10C4 4.477 8.477 0 14 0ZM14 2C11.8783 2 9.84344 2.84285 8.34315 4.34315C6.84285 5.84344 6 7.87827 6 10C6 12.1217 6.84285 14.1566 8.34315 15.6569C9.84344 17.1571 11.8783 18 14 18C16.1217 18 18.1566 17.1571 19.6569 15.6569C21.1571 14.1566 22 12.1217 22 10C22 7.87827 21.1571 5.84344 19.6569 4.34315C18.1566 2.84285 16.1217 2 14 2ZM14 14C14.2652 14 14.5196 14.1054 14.7071 14.2929C14.8946 14.4804 15 14.7348 15 15C15 15.2652 14.8946 15.5196 14.7071 15.7071C14.5196 15.8946 14.2652 16 14 16C13.7348 16 13.4804 15.8946 13.2929 15.7071C13.1054 15.5196 13 15.2652 13 15C13 14.7348 13.1054 14.4804 13.2929 14.2929C13.4804 14.1054 13.7348 14 14 14ZM14 4.5C14.8423 4.50003 15.6583 4.79335 16.3078 5.3296C16.9573 5.86585 17.3998 6.61154 17.5593 7.43858C17.7188 8.26562 17.5853 9.12239 17.1818 9.86171C16.7783 10.601 16.1299 11.1768 15.348 11.49C15.2322 11.5326 15.1278 11.6014 15.043 11.691C14.999 11.741 14.992 11.805 14.993 11.871L15 12C14.9997 12.2549 14.9021 12.5 14.7272 12.6854C14.5522 12.8707 14.313 12.9822 14.0586 12.9972C13.8042 13.0121 13.5536 12.9293 13.3582 12.7657C13.1627 12.6021 13.0371 12.3701 13.007 12.117L13 12V11.75C13 10.597 13.93 9.905 14.604 9.634C14.8783 9.52446 15.1176 9.34227 15.2962 9.10699C15.4748 8.87171 15.5859 8.59222 15.6176 8.29856C15.6493 8.00489 15.6004 7.70813 15.4762 7.44014C15.352 7.17215 15.1571 6.94307 14.9125 6.77748C14.6679 6.61189 14.3829 6.51606 14.0879 6.50027C13.793 6.48448 13.4993 6.54934 13.2384 6.68787C12.9775 6.8264 12.7593 7.03338 12.6072 7.28658C12.4551 7.53978 12.3748 7.82962 12.375 8.125C12.375 8.39022 12.2696 8.64457 12.0821 8.83211C11.8946 9.01964 11.6402 9.125 11.375 9.125C11.1098 9.125 10.8554 9.01964 10.6679 8.83211C10.4804 8.64457 10.375 8.39022 10.375 8.125C10.375 7.16359 10.7569 6.24156 11.4367 5.56174C12.1166 4.88192 13.0386 4.5 14 4.5Z" fill="#F7931D"/>
</g>
<defs>
<filter id="filter0_d_578_9277" x="0" y="0" width="28" height="29.814" filterUnits="userSpaceOnUse" color-interpolation-filters="sRGB">
<feFlood flood-opacity="0" result="BackgroundImageFix"/>
<feColorMatrix in="SourceAlpha" type="matrix" values="0 0 0 0 0 0 0 0 0 0 0 0 0 0 0 0 0 0 127 0" result="hardAlpha"/>
<feOffset dy="4"/>
<feGaussianBlur stdDeviation="2"/>
<feComposite in2="hardAlpha" operator="out"/>
<feColorMatrix type="matrix" values="0 0 0 0 0 0 0 0 0 0 0 0 0 0 0 0 0 0 0.25 0"/>
<feBlend mode="normal" in2="BackgroundImageFix" result="effect1_dropShadow_578_9277"/>
<feBlend mode="normal" in="SourceGraphic" in2="effect1_dropShadow_578_9277" result="shape"/>
</filter>
</defs>
</svg>
