<svg width="50" height="50" viewBox="0 0 50 50" fill="none" xmlns="http://www.w3.org/2000/svg">
<path d="M49.8124 41.0197L40.685 24.1048C41.6161 21.9869 42.1371 19.6463 42.1371 17.1837C42.1371 7.69314 34.4593 0 24.9894 0C15.5172 0 7.8402 7.69392 7.8402 17.1837C7.8402 19.7057 8.38688 22.0986 9.36015 24.2556L0.192069 41.0119C-0.103548 41.5503 -0.0544164 42.2146 0.315239 42.7062C0.685675 43.1962 1.31113 43.4267 1.90845 43.2861L9.73751 41.4863L12.4171 48.9653C12.6261 49.5467 13.1557 49.95 13.7694 49.9953C13.8092 49.9984 13.8474 50 13.8848 50C14.1669 49.9999 14.4436 49.9232 14.6856 49.778C14.9275 49.6328 15.1257 49.4246 15.259 49.1755L23.2377 34.2793C23.8195 34.3383 24.4038 34.3678 24.9885 34.3676C25.5305 34.3676 26.0655 34.3395 26.5942 34.2894L34.7462 49.1873C34.8904 49.4514 35.1077 49.6681 35.372 49.8113C35.6363 49.9545 35.9362 50.0181 36.2357 49.9945C36.8479 49.9453 37.3751 49.5428 37.5825 48.9645L40.2621 41.4855L48.0911 43.2853C48.6916 43.4306 49.3108 43.1969 49.6813 42.7085C50.0533 42.2208 50.1032 41.5597 49.8123 41.0197H49.8124ZM14.1686 44.6037L12.2064 39.1253C11.9381 38.3805 11.1598 37.9467 10.3893 38.1304L4.59879 39.4613L11.1989 27.398C13.3724 30.3403 16.4606 32.5598 20.0425 33.6399L14.1686 44.6037ZM10.9734 17.1837C10.9734 9.43976 17.2615 3.13926 24.99 3.13926C32.7176 3.13926 39.0049 9.43976 39.0049 17.1837C39.0049 24.9276 32.7176 31.2297 24.99 31.2297C17.2607 31.2297 10.9734 24.9276 10.9734 17.1837ZM39.6101 38.1303C38.8364 37.9475 38.0613 38.3804 37.793 39.1252L35.8175 44.6434L29.8149 33.6749C33.492 32.5957 36.6552 30.3176 38.8567 27.2893L45.4294 39.4675L39.6101 38.1303Z" fill="#174B8B"/>
</svg>
