<svg width="35" height="35" viewBox="0 0 35 35" fill="none" xmlns="http://www.w3.org/2000/svg">
<rect width="35" height="35" rx="5" fill="#F7931D"/>
<path d="M4.5 30.0001V28.5295C4.5 25.7993 5.33807 23.181 6.82983 21.2504C8.3216 19.3199 10.3449 18.2354 12.4545 18.2354C14.5642 18.2354 16.5875 19.3199 18.0793 21.2504C19.571 23.181 20.4091 25.7993 20.4091 28.5295V30.0001" stroke="white" stroke-width="1.5" stroke-linecap="round"/>
<path d="M18.1367 21.1765C18.1367 19.2264 18.7353 17.3562 19.8009 15.9772C20.8664 14.5983 22.3116 13.8236 23.8185 13.8236C24.5647 13.8236 25.3035 14.0138 25.9929 14.3833C26.6822 14.7528 27.3086 15.2945 27.8362 15.9772C28.3638 16.66 28.7823 17.4706 29.0679 18.3627C29.3534 19.2548 29.5004 20.2109 29.5004 21.1765V21.9118" stroke="white" stroke-width="1.5" stroke-linecap="round"/>
<path d="M12.4556 18.2353C13.6611 18.2353 14.8173 17.6155 15.6697 16.5124C16.5222 15.4092 17.0011 13.913 17.0011 12.3529C17.0011 10.7928 16.5222 9.29664 15.6697 8.19349C14.8173 7.09033 13.6611 6.47059 12.4556 6.47059C11.2501 6.47059 10.0939 7.09033 9.24149 8.19349C8.38905 9.29664 7.91016 10.7928 7.91016 12.3529C7.91016 13.913 8.38905 15.4092 9.24149 16.5124C10.0939 17.6155 11.2501 18.2353 12.4556 18.2353ZM23.8192 13.8235C24.7234 13.8235 25.5905 13.3587 26.2298 12.5314C26.8692 11.704 27.2283 10.5818 27.2283 9.41176C27.2283 8.24169 26.8692 7.11954 26.2298 6.29218C25.5905 5.46481 24.7234 5 23.8192 5C22.9151 5 22.048 5.46481 21.4087 6.29218C20.7693 7.11954 20.4102 8.24169 20.4102 9.41176C20.4102 10.5818 20.7693 11.704 21.4087 12.5314C22.048 13.3587 22.9151 13.8235 23.8192 13.8235Z" stroke="white" stroke-width="1.5" stroke-linecap="round" stroke-linejoin="round"/>
</svg>
