<svg width="12" height="15" viewBox="0 0 12 15" fill="none" xmlns="http://www.w3.org/2000/svg">
<path d="M11.3266 1.84219L6.01719 0.0328125C5.95312 0.0109375 5.86719 0 5.78125 0C5.69531 0 5.60938 0.0109375 5.54531 0.0328125L0.235938 1.84219C0.10625 1.88594 0 2.03594 0 2.17344V9.71094C0 9.84844 0.0890626 10.0297 0.196875 10.1156L5.58281 14.3125C5.6375 14.3547 5.70781 14.3766 5.77969 14.3766C5.85156 14.3766 5.92344 14.3547 5.97656 14.3125L11.3625 10.1156C11.4703 10.0312 11.5594 9.85 11.5594 9.71094V2.17344C11.5625 2.03594 11.4563 1.8875 11.3266 1.84219ZM8.63281 4.51094L5.31094 9.08438C5.28758 9.11634 5.25702 9.14234 5.22172 9.16027C5.18643 9.17819 5.1474 9.18753 5.10781 9.18753C5.06823 9.18753 5.0292 9.17819 4.9939 9.16027C4.95861 9.14234 4.92804 9.11634 4.90469 9.08438L2.92969 6.36562C2.87031 6.28281 2.92969 6.16719 3.03125 6.16719H3.89375C3.97344 6.16719 4.05 6.20625 4.09688 6.27031L5.10781 7.66094L7.46562 4.41406C7.5125 4.35 7.5875 4.31094 7.66875 4.31094H8.53125C8.63281 4.3125 8.69219 4.42813 8.63281 4.51094Z" fill="#124F16"/>
</svg>
