<svg width="18" height="20" viewBox="0 0 18 20" fill="none" xmlns="http://www.w3.org/2000/svg">
<path d="M5.64453 8.8335L7.72803 10.9165L11.8945 6.75" stroke="#F7931D" stroke-linecap="round" stroke-linejoin="round"/>
<path d="M8.77147 19.25L9.68797 18.854C11.6096 18.0294 13.269 16.6947 14.4864 14.9945C15.7038 13.2943 16.4328 11.2934 16.5945 9.2085L17.0425 3.4585C17.0498 3.22037 16.9751 2.98696 16.8309 2.79729C16.6868 2.60762 16.4819 2.4732 16.2505 2.4165L8.77147 0.5L1.29247 2.375C1.06117 2.43168 0.856321 2.56603 0.712168 2.7556C0.568014 2.94516 0.493287 3.17846 0.500474 3.4165L0.948474 9.1665C1.11002 11.2515 1.83898 13.2525 3.05639 14.9528C4.2738 16.6531 5.93325 17.9878 7.85497 18.8125L8.77147 19.25Z" stroke="#F7931D" stroke-linecap="round" stroke-linejoin="round"/>
</svg>
