<svg width="35" height="35" viewBox="0 0 35 35" fill="none" xmlns="http://www.w3.org/2000/svg">
<rect width="35" height="35" rx="5" fill="#F7931D"/>
<path fill-rule="evenodd" clip-rule="evenodd" d="M21 10.25C20.6685 10.25 20.3505 10.3817 20.1161 10.6161C19.8817 10.8505 19.75 11.1685 19.75 11.5C19.75 11.8315 19.8817 12.1495 20.1161 12.3839C20.3505 12.6183 20.6685 12.75 21 12.75C21.3315 12.75 21.6495 12.6183 21.8839 12.3839C22.1183 12.1495 22.25 11.8315 22.25 11.5C22.25 11.1685 22.1183 10.8505 21.8839 10.6161C21.6495 10.3817 21.3315 10.25 21 10.25ZM18.25 11.5C18.25 10.7707 18.5397 10.0712 19.0555 9.55546C19.5712 9.03973 20.2707 8.75 21 8.75C21.7293 8.75 22.4288 9.03973 22.9445 9.55546C23.4603 10.0712 23.75 10.7707 23.75 11.5C23.75 12.2293 23.4603 12.9288 22.9445 13.4445C22.4288 13.9603 21.7293 14.25 21 14.25C20.2707 14.25 19.5712 13.9603 19.0555 13.4445C18.5397 12.9288 18.25 12.2293 18.25 11.5Z" fill="white"/>
<path fill-rule="evenodd" clip-rule="evenodd" d="M16.943 4.75H17.057C19.366 4.75 21.175 4.75 22.587 4.94C24.031 5.134 25.171 5.54 26.066 6.434C26.961 7.329 27.366 8.469 27.56 9.914C27.75 11.325 27.75 13.134 27.75 15.443V15.557C27.75 17.866 27.75 19.675 27.56 21.087C27.366 22.531 26.96 23.671 26.066 24.566C25.171 25.461 24.031 25.866 22.586 26.06C21.175 26.25 19.366 26.25 17.057 26.25H16.943C14.634 26.25 12.825 26.25 11.413 26.06C9.969 25.866 8.829 25.46 7.934 24.566C7.039 23.671 6.634 22.531 6.44 21.086C6.25 19.675 6.25 17.866 6.25 15.557V15.443C6.25 13.134 6.25 11.325 6.44 9.913C6.634 8.469 7.04 7.329 7.934 6.434C8.829 5.539 9.969 5.134 11.414 4.94C12.825 4.75 14.634 4.75 16.943 4.75ZM8.995 23.505C8.425 22.935 8.098 22.165 7.926 20.886C7.773 19.745 7.753 18.289 7.75 16.34L9.245 15.032C9.5409 14.7729 9.92423 14.636 10.3173 14.649C10.7104 14.662 11.0839 14.8239 11.362 15.102L15.652 19.392C16.1097 19.8499 16.7142 20.1316 17.3592 20.1876C18.0042 20.2436 18.6483 20.0702 19.178 19.698L19.476 19.488C19.8927 19.195 20.3964 19.0521 20.9049 19.0827C21.4133 19.1132 21.8964 19.3153 22.275 19.656L25.498 22.558C25.5333 22.5893 25.5703 22.617 25.609 22.641C25.4602 22.9624 25.2558 23.2549 25.005 23.505C24.435 24.075 23.665 24.402 22.386 24.574C21.086 24.748 19.378 24.75 17 24.75C14.622 24.75 12.914 24.748 11.614 24.574C10.335 24.402 9.565 24.074 8.995 23.505ZM11.614 6.426C10.335 6.598 9.564 6.926 8.994 7.495C8.425 8.065 8.098 8.835 7.926 10.114C7.781 11.194 7.756 12.554 7.751 14.347L8.258 13.903C8.84037 13.3935 9.59461 13.1244 10.3679 13.1503C11.1413 13.1761 11.8759 13.4948 12.423 14.042L16.713 18.332C16.9211 18.5398 17.1959 18.6675 17.4889 18.6928C17.7819 18.718 18.0744 18.6391 18.315 18.47L18.613 18.26C19.3076 17.7719 20.1472 17.5339 20.9946 17.5849C21.842 17.636 22.647 17.973 23.278 18.541L26.052 21.038L26.074 20.886C26.248 19.586 26.25 17.878 26.25 15.5C26.25 13.122 26.248 11.414 26.074 10.114C25.902 8.835 25.574 8.064 25.005 7.494C24.435 6.925 23.665 6.598 22.386 6.426C21.086 6.252 19.378 6.25 17 6.25C14.622 6.25 12.914 6.252 11.614 6.426Z" fill="white"/>
</svg>
