<svg width="10" height="20" viewBox="0 0 10 20" fill="none" xmlns="http://www.w3.org/2000/svg">
<path d="M7.61936 11.3193V2.85826C7.61325 2.09825 7.31205 1.37037 6.77936 0.828255C6.48814 0.53974 6.1383 0.317202 5.75354 0.175723C5.36879 0.0342441 4.95812 -0.0228687 4.54936 0.00825508C3.80956 0.0811573 3.12456 0.430678 2.63137 0.986903C2.13819 1.54313 1.87318 2.26505 1.88936 3.00826L1.89936 11.2883C1.16718 11.8382 0.609367 12.5878 0.292933 13.4471C-0.0235005 14.3064 -0.0850896 15.2388 0.115566 16.1322C0.316221 17.0257 0.770585 17.8422 1.42407 18.4836C2.07755 19.1251 2.90235 19.5642 3.79936 19.7483C4.11244 19.8085 4.43055 19.8386 4.74936 19.8383C6.01006 19.8383 7.21927 19.3381 8.11166 18.4476C9.00405 17.5571 9.50671 16.349 9.50936 15.0883C9.51117 14.356 9.34111 13.6335 9.01285 12.9789C8.68459 12.3243 8.2073 11.7558 7.61936 11.3193ZM7.13936 17.9793C6.70516 18.335 6.19719 18.5896 5.65232 18.7245C5.10746 18.8594 4.53939 18.8713 3.98936 18.7593C3.25938 18.6139 2.59021 18.2517 2.06928 17.7201C1.54835 17.1884 1.19987 16.512 1.06936 15.7793C0.939957 15.092 1.00529 14.3823 1.25798 13.7303C1.51067 13.0782 1.94066 12.5098 2.49936 12.0893C2.61997 12.0003 2.71806 11.8843 2.78578 11.7506C2.8535 11.6168 2.88898 11.4691 2.88936 11.3193V3.00826C2.8783 2.51969 3.04922 2.04445 3.36892 1.67485C3.68863 1.30525 4.1343 1.06767 4.61936 1.00826C4.66558 1.00024 4.71248 0.99689 4.75936 0.998255C5.25105 1.00346 5.72113 1.20109 6.06883 1.54879C6.41652 1.89649 6.61416 2.36657 6.61936 2.85826V11.3193C6.61975 11.4691 6.65522 11.6168 6.72294 11.7506C6.79067 11.8843 6.88876 12.0003 7.00936 12.0893C7.46382 12.4294 7.83495 12.8684 8.09465 13.3732C8.35436 13.8779 8.49582 14.4351 8.50835 15.0026C8.52087 15.5701 8.40413 16.133 8.16695 16.6487C7.92977 17.1644 7.57837 17.6194 7.13936 17.9793Z" fill="white"/>
<path d="M6.64917 15.0883C6.64917 15.5896 6.45005 16.0703 6.0956 16.4248C5.74116 16.7792 5.26043 16.9783 4.75917 16.9783C4.25791 16.9783 3.77718 16.7792 3.42274 16.4248C3.06829 16.0703 2.86917 15.5896 2.86917 15.0883C2.86687 14.6751 3.00225 14.2729 3.25395 13.9451C3.50565 13.6174 3.85933 13.3828 4.25917 13.2783V3.31934C4.25917 3.18673 4.31185 3.05955 4.40562 2.96578C4.49938 2.87201 4.62656 2.81934 4.75917 2.81934C4.89178 2.81934 5.01895 2.87201 5.11272 2.96578C5.20649 3.05955 5.25917 3.18673 5.25917 3.31934V13.2793C5.65799 13.3853 6.01057 13.6201 6.26199 13.9473C6.5134 14.2745 6.64953 14.6757 6.64917 15.0883Z" fill="white"/>
</svg>
