<svg width="45" height="40" viewBox="0 0 45 40" fill="none" xmlns="http://www.w3.org/2000/svg">
<path d="M8.4625 24.8662H13.9725L27.145 12.5221C27.3583 12.291 27.5192 12.049 27.6275 11.796C27.7358 11.543 27.79 11.2916 27.79 11.0418C27.79 10.7919 27.7333 10.5444 27.62 10.2992C27.5083 10.0556 27.35 9.81749 27.145 9.58482L24.845 7.35961C24.63 7.15817 24.3817 7.00748 24.1 6.90754C23.8183 6.8076 23.54 6.75763 23.265 6.75763C22.9983 6.75763 22.73 6.8076 22.46 6.90754C22.19 7.00748 21.9308 7.15817 21.6825 7.35961L8.4625 19.7037V24.8662ZM10.6725 22.7909V20.5657L19.2925 12.4893L20.4475 13.6324L21.62 14.759L13.0475 22.7909H10.6725ZM20.4475 13.6324L21.62 14.759L19.295 12.487L20.4475 13.6324ZM22.0225 24.8639H36.54V22.5215H24.525L22.0225 24.8639ZM0 40V3.78521C0 2.70617 0.385833 1.80594 1.1575 1.0845C1.92917 0.363062 2.88917 0.00156155 4.0375 0H40.9625C42.1125 0 43.0725 0.3615 43.8425 1.0845C44.6125 1.8075 44.9983 2.70774 45 3.78521V29.0098C45 30.0873 44.6142 30.9875 43.8425 31.7105C43.0708 32.4335 42.1108 32.7942 40.9625 32.7926H7.6925L0 40ZM6.625 30.4503H40.9625C41.3458 30.4503 41.6983 30.3004 42.02 30.0006C42.3417 29.7008 42.5017 29.3705 42.5 29.0098V3.78287C42.5 3.42371 42.34 3.09344 42.02 2.79206C41.7 2.49068 41.3475 2.34077 40.9625 2.34233H4.0375C3.65417 2.34233 3.30167 2.49224 2.98 2.79206C2.65833 3.09188 2.49833 3.42215 2.5 3.78287V34.3035L6.625 30.4503Z" fill="#174B8B"/>
</svg>
