<svg width="24" height="21" viewBox="0 0 24 21" fill="none" xmlns="http://www.w3.org/2000/svg">
<rect x="0.5" y="0.5" width="22.8394" height="19.9905" rx="9.99523" fill="#F2F4F6"/>
<rect x="0.5" y="0.5" width="22.8394" height="19.9905" rx="9.99523" stroke="#E4E6E8"/>
<path d="M18.9289 7.30029L17.112 9.05224C16.745 13.155 13.1569 16.3437 8.86272 16.3437C7.98043 16.3437 7.25309 16.2089 6.70074 15.9429C6.25534 15.7278 6.07305 15.4975 6.02748 15.4319C5.98684 15.3732 5.9605 15.3063 5.95043 15.2364C5.94036 15.1664 5.94681 15.0951 5.9693 15.028C5.9918 14.9607 6.02976 14.8993 6.08034 14.8482C6.13092 14.7971 6.19283 14.7576 6.26142 14.7329C6.27722 14.727 7.73434 14.1874 8.65977 13.1602C8.14655 12.7533 7.69853 12.2755 7.33026 11.7423C6.57678 10.6636 5.73338 8.78974 5.99345 5.98955C6.00169 5.90057 6.03613 5.81572 6.09271 5.74498C6.14929 5.67424 6.22565 5.62057 6.3128 5.59028C6.39995 5.55999 6.49426 5.55434 6.58463 5.57401C6.675 5.59367 6.75766 5.63782 6.82288 5.70127C6.84415 5.72177 8.8451 7.64072 11.2915 8.26299V7.90615C11.2905 7.53196 11.3672 7.16139 11.5171 6.81623C11.667 6.47107 11.8869 6.15832 12.164 5.89639C12.4331 5.63724 12.7534 5.4327 13.1058 5.29483C13.4582 5.15696 13.8357 5.08855 14.216 5.09365C14.7261 5.0985 15.2263 5.23056 15.6679 5.47697C16.1094 5.72339 16.4774 6.07579 16.7359 6.4999H18.5849C18.6811 6.49983 18.7752 6.52728 18.8552 6.57878C18.9352 6.63028 18.9976 6.70352 19.0344 6.78922C19.0713 6.87492 19.0808 6.96922 19.0621 7.0602C19.0433 7.15117 18.9969 7.23473 18.9289 7.30029Z" fill="#174B8B"/>
</svg>
