<svg width="16" height="20" viewBox="0 0 16 20" fill="none" xmlns="http://www.w3.org/2000/svg">
<path d="M7.293 0.292786C7.48053 0.105315 7.73484 0 8 0C8.26516 0 8.51947 0.105315 8.707 0.292786L11.707 3.29279C11.8892 3.48139 11.99 3.73399 11.9877 3.99619C11.9854 4.25838 11.8802 4.5092 11.6948 4.6946C11.5094 4.88001 11.2586 4.98518 10.9964 4.98746C10.7342 4.98974 10.4816 4.88894 10.293 4.70679L9 3.41379V12.9998C9 13.265 8.89464 13.5194 8.70711 13.7069C8.51957 13.8944 8.26522 13.9998 8 13.9998C7.73478 13.9998 7.48043 13.8944 7.29289 13.7069C7.10536 13.5194 7 13.265 7 12.9998V3.41379L5.707 4.70679C5.5184 4.88894 5.2658 4.98974 5.0036 4.98746C4.7414 4.98518 4.49059 4.88001 4.30518 4.6946C4.11977 4.5092 4.0146 4.25838 4.01233 3.99619C4.01005 3.73399 4.11084 3.48139 4.293 3.29279L7.293 0.292786ZM0 8.99979C0 8.46935 0.210714 7.96065 0.585786 7.58557C0.960859 7.2105 1.46957 6.99979 2 6.99979H4C4.26522 6.99979 4.51957 7.10514 4.70711 7.29268C4.89464 7.48022 5 7.73457 5 7.99979C5 8.265 4.89464 8.51936 4.70711 8.70689C4.51957 8.89443 4.26522 8.99979 4 8.99979H2V17.9998H14V8.99979H12C11.7348 8.99979 11.4804 8.89443 11.2929 8.70689C11.1054 8.51936 11 8.265 11 7.99979C11 7.73457 11.1054 7.48022 11.2929 7.29268C11.4804 7.10514 11.7348 6.99979 12 6.99979H14C14.5304 6.99979 15.0391 7.2105 15.4142 7.58557C15.7893 7.96065 16 8.46935 16 8.99979V17.9998C16 18.5302 15.7893 19.0389 15.4142 19.414C15.0391 19.7891 14.5304 19.9998 14 19.9998H2C1.46957 19.9998 0.960859 19.7891 0.585786 19.414C0.210714 19.0389 0 18.5302 0 17.9998V8.99979Z" fill="black"/>
</svg>
