<svg width="20" height="20" viewBox="0 0 20 20" fill="none" xmlns="http://www.w3.org/2000/svg">
<path d="M0.428125 9.91308C0.427656 11.599 0.870156 13.2453 1.71156 14.6963L0.347656 19.6539L5.44391 18.3236C6.85347 19.0875 8.43277 19.4878 10.0377 19.4879H10.0419C15.3399 19.4879 19.6527 15.196 19.6549 9.92062C19.6559 7.36434 18.6569 4.96058 16.8417 3.15212C15.0269 1.34381 12.6132 0.347419 10.0415 0.346252C4.74281 0.346252 0.430391 4.63796 0.428203 9.91308" fill="url(#paint0_linear_578_11334)"/>
<path d="M0.0835938 9.90997C0.0830469 11.6566 0.541406 13.3617 1.41281 14.8646L0 20L5.27898 18.622C6.73352 19.4115 8.37117 19.8278 10.0376 19.8284H10.0419C15.53 19.8284 19.9977 15.3821 20 9.91791C20.0009 7.26977 18.9659 4.7796 17.0859 2.90635C15.2057 1.03334 12.7057 0.00108887 10.0419 0C4.55281 0 0.0857813 4.44571 0.0835938 9.90997ZM3.22742 14.6058L3.03031 14.2943C2.20172 12.9827 1.76437 11.467 1.765 9.9106C1.76672 5.36884 5.47953 1.67375 10.045 1.67375C12.2559 1.67468 14.3337 2.53271 15.8966 4.08949C17.4593 5.64642 18.3192 7.71605 18.3187 9.91728C18.3166 14.459 14.6037 18.1546 10.0419 18.1546H10.0386C8.5532 18.1538 7.09641 17.7567 5.82594 17.0062L5.52359 16.8277L2.39094 17.6454L3.22742 14.6058Z" fill="url(#paint1_linear_578_11334)"/>
<path d="M7.55156 5.76696C7.36516 5.35451 7.16898 5.34619 6.99172 5.33895C6.84656 5.33273 6.68062 5.3332 6.51484 5.3332C6.34891 5.3332 6.0793 5.39534 5.85141 5.64306C5.62328 5.89101 4.98047 6.4902 4.98047 7.70888C4.98047 8.92756 5.87211 10.1054 5.99641 10.2708C6.12086 10.436 7.71773 13.0169 10.2468 14.0098C12.3487 14.8349 12.7764 14.6708 13.2326 14.6294C13.6888 14.5882 14.7048 14.0304 14.912 13.452C15.1195 12.8736 15.1195 12.3779 15.0573 12.2743C14.9951 12.1711 14.8291 12.1091 14.5803 11.9853C14.3315 11.8614 13.1081 11.2621 12.8801 11.1794C12.652 11.0968 12.4861 11.0556 12.3202 11.3036C12.1542 11.5513 11.6777 12.1091 11.5325 12.2743C11.3874 12.4399 11.2422 12.4605 10.9934 12.3366C10.7445 12.2123 9.94313 11.951 8.99242 11.1072C8.25273 10.4507 7.75336 9.63984 7.6082 9.39181C7.46305 9.14417 7.59266 9.00993 7.71742 8.8865C7.82922 8.77551 7.96633 8.59725 8.09086 8.45266C8.21492 8.308 8.25633 8.20479 8.3393 8.03959C8.42234 7.87424 8.38078 7.72957 8.31867 7.60567C8.25633 7.48178 7.77281 6.25672 7.55156 5.76696Z" fill="white"/>
<defs>
<linearGradient id="paint0_linear_578_11334" x1="965.711" y1="1931.11" x2="965.711" y2="0.346252" gradientUnits="userSpaceOnUse">
<stop stop-color="#1FAF38"/>
<stop offset="1" stop-color="#60D669"/>
</linearGradient>
<linearGradient id="paint1_linear_578_11334" x1="1000" y1="2000" x2="1000" y2="0" gradientUnits="userSpaceOnUse">
<stop stop-color="#F9F9F9"/>
<stop offset="1" stop-color="white"/>
</linearGradient>
</defs>
</svg>
