<svg width="24" height="21" viewBox="0 0 24 21" fill="none" xmlns="http://www.w3.org/2000/svg">
<rect x="0.5" y="0.5" width="22.8394" height="19.9905" rx="9.99523" fill="#F2F4F6"/>
<rect x="0.5" y="0.5" width="22.8394" height="19.9905" rx="9.99523" stroke="#E4E6E8"/>
<path d="M10.5621 12.8731L14.4467 10.7118L10.5621 8.55054V12.8731ZM19.2146 7.23219C19.3119 7.57078 19.3792 8.02464 19.4242 8.60098C19.4766 9.17731 19.499 9.6744 19.499 10.1066L19.5439 10.7118C19.5439 12.2895 19.4242 13.4494 19.2146 14.1914C19.0274 14.8398 18.5933 15.2576 17.9197 15.4378C17.5679 15.5314 16.9242 15.5962 15.9362 15.6394C14.9632 15.6899 14.0725 15.7115 13.2492 15.7115L12.0591 15.7547C8.92292 15.7547 6.96937 15.6394 6.19843 15.4378C5.52479 15.2576 5.09067 14.8398 4.90355 14.1914C4.80625 13.8528 4.73889 13.3989 4.69398 12.8226C4.64158 12.2463 4.61913 11.7492 4.61913 11.3169L4.57422 10.7118C4.57422 9.13409 4.69398 7.97422 4.90355 7.23219C5.09067 6.58381 5.52479 6.16597 6.19843 5.98586C6.55022 5.89221 7.19392 5.82737 8.18192 5.78415C9.15495 5.73372 10.0456 5.71211 10.869 5.71211L12.0591 5.66888C15.1952 5.66888 17.1487 5.78415 17.9197 5.98586C18.5933 6.16597 19.0274 6.58381 19.2146 7.23219Z" fill="#EE3331"/>
</svg>
